<?xml version="1.0" encoding="utf-8" standalone="no"?>
<!DOCTYPE svg PUBLIC "-//W3C//DTD SVG 1.1//EN"
  "http://www.w3.org/Graphics/SVG/1.1/DTD/svg11.dtd">
<!-- Created with matplotlib (http://matplotlib.org/) -->
<svg height="244pt" version="1.1" viewBox="0 0 712 244" width="712pt" xmlns="http://www.w3.org/2000/svg" xmlns:xlink="http://www.w3.org/1999/xlink">
 <defs>
  <style type="text/css">
*{stroke-linecap:butt;stroke-linejoin:round;}
  </style>
 </defs>
 <g id="figure_1">
  <g id="patch_1">
   <path d="M 0 244.8 
L 712.8 244.8 
L 712.8 0 
L 0 0 
z
" style="fill:#ffffff;"/>
  </g>
  <g id="axes_1">
   <g id="patch_2">
    <path d="M 59.872646 202.903963 
L 346.018665 202.903963 
L 346.018665 10.7 
L 59.872646 10.7 
z
" style="fill:#ffffff;"/>
   </g>
   <g id="PolyCollection_1">
    <defs>
     <path d="M 62.257196 -225.363456 
L 62.257196 -202.51792 
L 65.027128 -200.581563 
L 67.79706 -198.665485 
L 70.566992 -196.768978 
L 73.336924 -194.891345 
L 76.106856 -193.0319 
L 78.876788 -191.189967 
L 81.64672 -189.364884 
L 84.416652 -187.555997 
L 87.186584 -185.762663 
L 89.956516 -183.984251 
L 92.726448 -182.220139 
L 95.49638 -180.469718 
L 98.266312 -178.732388 
L 101.036244 -177.007558 
L 103.806176 -175.294651 
L 106.576108 -173.593097 
L 109.34604 -171.902204 
L 112.115972 -170.220613 
L 114.885904 -168.54765 
L 117.655836 -166.88279 
L 120.425768 -165.225518 
L 123.1957 -163.575327 
L 125.965632 -161.931725 
L 128.735564 -160.294228 
L 131.505496 -158.662364 
L 134.275428 -157.03567 
L 137.04536 -155.413697 
L 139.815292 -153.79587 
L 142.585224 -152.180944 
L 145.355156 -150.568366 
L 148.125088 -148.957732 
L 150.89502 -147.34865 
L 153.664952 -145.740742 
L 156.434884 -144.133639 
L 159.204816 -142.526987 
L 161.974748 -140.920445 
L 164.74468 -139.313684 
L 167.514612 -137.706391 
L 170.284544 -136.098315 
L 173.054476 -134.489477 
L 175.824408 -132.879656 
L 178.59434 -131.268596 
L 181.364272 -129.656057 
L 184.134204 -128.041815 
L 186.904136 -126.425662 
L 189.674068 -124.80741 
L 192.444 -123.186884 
L 195.213932 -121.563933 
L 197.983864 -119.938421 
L 200.753796 -118.311382 
L 203.523728 -116.689602 
L 206.29366 -115.074158 
L 209.063592 -113.464999 
L 211.833524 -111.8621 
L 214.603456 -110.265459 
L 217.373388 -108.6751 
L 220.14332 -107.091074 
L 222.913252 -105.513461 
L 225.683184 -103.942369 
L 228.453116 -102.377938 
L 231.223048 -100.819305 
L 233.99298 -99.260472 
L 236.762912 -97.700649 
L 239.532844 -96.140116 
L 242.302776 -94.579193 
L 245.072708 -93.018246 
L 247.84264 -91.457682 
L 250.612572 -89.89796 
L 253.382504 -88.339588 
L 256.152436 -86.783131 
L 258.922368 -85.22921 
L 261.6923 -83.678997 
L 264.462232 -82.136157 
L 267.232164 -80.602001 
L 270.002096 -79.077433 
L 272.772028 -77.563446 
L 275.54196 -76.061121 
L 278.311892 -74.571646 
L 281.081824 -73.096316 
L 283.851756 -71.636553 
L 286.621688 -70.193912 
L 289.39162 -68.770103 
L 292.161552 -67.366934 
L 294.931484 -65.986052 
L 297.701416 -64.629678 
L 300.471348 -63.300355 
L 303.24128 -62.000923 
L 306.011212 -60.734564 
L 308.781144 -59.504875 
L 311.551076 -58.315953 
L 314.321008 -57.172515 
L 317.09094 -56.080067 
L 319.860872 -55.045148 
L 322.630804 -54.075701 
L 325.400736 -53.181691 
L 328.170668 -52.376191 
L 330.9406 -51.677616 
L 333.710532 -51.115364 
L 336.480464 -50.753361 
L 336.480464 -50.757968 
L 336.480464 -50.757968 
L 333.710532 -51.149427 
L 330.9406 -51.74366 
L 328.170668 -52.476743 
L 325.400736 -53.319276 
L 322.630804 -54.252846 
L 319.860872 -55.264377 
L 317.09094 -56.343908 
L 314.321008 -57.483493 
L 311.551076 -58.676593 
L 308.781144 -59.917704 
L 306.011212 -61.202106 
L 303.24128 -62.525705 
L 300.471348 -63.884903 
L 297.701416 -65.276517 
L 294.931484 -66.697709 
L 292.161552 -68.145935 
L 289.39162 -69.618831 
L 286.621688 -71.113899 
L 283.851756 -72.62919 
L 281.081824 -74.162994 
L 278.311892 -75.713756 
L 275.54196 -77.280053 
L 272.772028 -78.860591 
L 270.002096 -80.454182 
L 267.232164 -82.059743 
L 264.462232 -83.676284 
L 261.6923 -85.3029 
L 258.922368 -86.93925 
L 256.152436 -88.587492 
L 253.382504 -90.247426 
L 250.612572 -91.918429 
L 247.84264 -93.599938 
L 245.072708 -95.291445 
L 242.302776 -96.99249 
L 239.532844 -98.702665 
L 236.762912 -100.421607 
L 233.99298 -102.148994 
L 231.223048 -103.884545 
L 228.453116 -105.626984 
L 225.683184 -107.3699 
L 222.913252 -109.112088 
L 220.14332 -110.853407 
L 217.373388 -112.593749 
L 214.603456 -114.333036 
L 211.833524 -116.071215 
L 209.063592 -117.808264 
L 206.29366 -119.544182 
L 203.523728 -121.278997 
L 200.753796 -123.012758 
L 197.983864 -124.746684 
L 195.213932 -126.487749 
L 192.444 -128.237215 
L 189.674068 -129.995216 
L 186.904136 -131.761906 
L 184.134204 -133.537457 
L 181.364272 -135.322059 
L 178.59434 -137.115919 
L 175.824408 -138.919261 
L 173.054476 -140.732326 
L 170.284544 -142.555369 
L 167.514612 -144.388713 
L 164.74468 -146.232949 
L 161.974748 -148.088429 
L 159.204816 -149.955467 
L 156.434884 -151.834391 
L 153.664952 -153.725542 
L 150.89502 -155.629275 
L 148.125088 -157.545958 
L 145.355156 -159.475969 
L 142.585224 -161.419701 
L 139.815292 -163.377558 
L 137.04536 -165.349819 
L 134.275428 -167.336094 
L 131.505496 -169.336686 
L 128.735564 -171.352044 
L 125.965632 -173.38263 
L 123.1957 -175.428916 
L 120.425768 -177.491386 
L 117.655836 -179.570534 
L 114.885904 -181.666865 
L 112.115972 -183.780894 
L 109.34604 -185.913148 
L 106.576108 -188.064028 
L 103.806176 -190.233269 
L 101.036244 -192.421294 
L 98.266312 -194.628671 
L 95.49638 -196.855979 
L 92.726448 -199.103808 
L 89.956516 -201.372757 
L 87.186584 -203.663437 
L 84.416652 -205.976469 
L 81.64672 -208.312484 
L 78.876788 -210.672125 
L 76.106856 -213.056046 
L 73.336924 -215.464909 
L 70.566992 -217.89939 
L 67.79706 -220.360175 
L 65.027128 -222.847961 
L 62.257196 -225.363456 
z
" id="m071dcb1bbb" style="stroke:#1f77b4;stroke-opacity:0.3;"/>
    </defs>
    <g clip-path="url(#p0292dab693)">
     <use style="fill:#1f77b4;fill-opacity:0.3;stroke:#1f77b4;stroke-opacity:0.3;" x="0" xlink:href="#m071dcb1bbb" y="244.8"/>
    </g>
   </g>
   <g id="PolyCollection_2">
    <defs>
     <path d="M 62.257196 -185.844994 
L 62.257196 -170.185321 
L 65.027128 -169.039084 
L 67.79706 -167.915703 
L 70.566992 -166.814774 
L 73.336924 -165.735896 
L 76.106856 -164.67867 
L 78.876788 -163.642702 
L 81.64672 -162.627598 
L 84.416652 -161.632968 
L 87.186584 -160.658424 
L 89.956516 -159.703582 
L 92.726448 -158.768057 
L 95.49638 -157.851471 
L 98.266312 -156.953444 
L 101.036244 -156.073602 
L 103.806176 -155.211569 
L 106.576108 -154.366976 
L 109.34604 -153.536188 
L 112.115972 -152.699253 
L 114.885904 -151.85254 
L 117.655836 -150.995688 
L 120.425768 -150.128335 
L 123.1957 -149.250119 
L 125.965632 -148.360685 
L 128.735564 -147.459676 
L 131.505496 -146.546737 
L 134.275428 -145.621516 
L 137.04536 -144.683662 
L 139.815292 -143.734739 
L 142.585224 -142.785873 
L 145.355156 -141.838632 
L 148.125088 -140.892671 
L 150.89502 -139.947647 
L 153.664952 -139.003219 
L 156.434884 -138.059047 
L 159.204816 -137.114791 
L 161.974748 -136.170116 
L 164.74468 -135.224685 
L 167.514612 -134.278164 
L 170.284544 -133.330978 
L 173.054476 -132.387343 
L 175.824408 -131.447687 
L 178.59434 -130.51168 
L 181.364272 -129.578995 
L 184.134204 -128.649305 
L 186.904136 -127.722284 
L 189.674068 -126.797607 
L 192.444 -125.87495 
L 195.213932 -124.953992 
L 197.983864 -124.034409 
L 200.753796 -123.114142 
L 203.523728 -122.182431 
L 206.29366 -121.237218 
L 209.063592 -120.278181 
L 211.833524 -119.305001 
L 214.603456 -118.317358 
L 217.373388 -117.314929 
L 220.14332 -116.297394 
L 222.913252 -115.264429 
L 225.683184 -114.215709 
L 228.453116 -113.150908 
L 231.223048 -112.070404 
L 233.99298 -110.978115 
L 236.762912 -109.874413 
L 239.532844 -108.758953 
L 242.302776 -107.631388 
L 245.072708 -106.491358 
L 247.84264 -105.338498 
L 250.612572 -104.172429 
L 253.382504 -102.992759 
L 256.152436 -101.799081 
L 258.922368 -100.590968 
L 261.6923 -99.368888 
L 264.462232 -98.137878 
L 267.232164 -96.898344 
L 270.002096 -95.649739 
L 272.772028 -94.391464 
L 275.54196 -93.122866 
L 278.311892 -91.843221 
L 281.081824 -90.551724 
L 283.851756 -89.247467 
L 286.621688 -87.929415 
L 289.39162 -86.596382 
L 292.161552 -85.246677 
L 294.931484 -83.87681 
L 297.701416 -82.484542 
L 300.471348 -81.067553 
L 303.24128 -79.623009 
L 306.011212 -78.147397 
L 308.781144 -76.636291 
L 311.551076 -75.084 
L 314.321008 -73.483041 
L 317.09094 -71.823299 
L 319.860872 -70.090631 
L 322.630804 -68.264376 
L 325.400736 -66.312538 
L 328.170668 -64.181279 
L 330.9406 -61.767565 
L 333.710532 -58.822621 
L 336.480464 -54.200252 
L 336.480464 -54.54927 
L 336.480464 -54.54927 
L 333.710532 -59.377108 
L 330.9406 -62.522211 
L 328.170668 -65.130774 
L 325.400736 -67.451572 
L 322.630804 -69.587639 
L 319.860872 -71.592813 
L 317.09094 -73.49909 
L 314.321008 -75.327131 
L 311.551076 -77.091079 
L 308.781144 -78.801048 
L 306.011212 -80.464523 
L 303.24128 -82.087194 
L 300.471348 -83.673487 
L 297.701416 -85.226915 
L 294.931484 -86.750312 
L 292.161552 -88.245997 
L 289.39162 -89.715589 
L 286.621688 -91.158839 
L 283.851756 -92.576816 
L 281.081824 -93.970707 
L 278.311892 -95.341546 
L 275.54196 -96.690241 
L 272.772028 -98.017598 
L 270.002096 -99.32434 
L 267.232164 -100.611122 
L 264.462232 -101.878539 
L 261.6923 -103.127142 
L 258.922368 -104.35836 
L 256.152436 -105.578185 
L 253.382504 -106.787985 
L 250.612572 -107.988187 
L 247.84264 -109.1792 
L 245.072708 -110.361414 
L 242.302776 -111.535209 
L 239.532844 -112.700951 
L 236.762912 -113.858997 
L 233.99298 -115.009697 
L 231.223048 -116.153394 
L 228.453116 -117.291134 
L 225.683184 -118.427502 
L 222.913252 -119.563537 
L 220.14332 -120.699565 
L 217.373388 -121.835911 
L 214.603456 -122.972898 
L 211.833524 -124.110849 
L 209.063592 -125.250084 
L 206.29366 -126.390924 
L 203.523728 -127.533688 
L 200.753796 -128.678698 
L 197.983864 -129.824533 
L 195.213932 -130.961079 
L 192.444 -132.086916 
L 189.674068 -133.202368 
L 186.904136 -134.307755 
L 184.134204 -135.403404 
L 181.364272 -136.489637 
L 178.59434 -137.566781 
L 175.824408 -138.635162 
L 173.054476 -139.695109 
L 170.284544 -140.74695 
L 167.514612 -141.791774 
L 164.74468 -142.834461 
L 161.974748 -143.8761 
L 159.204816 -144.917027 
L 156.434884 -145.957577 
L 153.664952 -146.998087 
L 150.89502 -148.038896 
L 148.125088 -149.080344 
L 145.355156 -150.122771 
L 142.585224 -151.166522 
L 139.815292 -152.21194 
L 137.04536 -153.261284 
L 134.275428 -154.326378 
L 131.505496 -155.409482 
L 128.735564 -156.510948 
L 125.965632 -157.631128 
L 123.1957 -158.770377 
L 120.425768 -159.92905 
L 117.655836 -161.107506 
L 114.885904 -162.306104 
L 112.115972 -163.525206 
L 109.34604 -164.765175 
L 106.576108 -166.023112 
L 103.806176 -167.279799 
L 101.036244 -168.532342 
L 98.266312 -169.781113 
L 95.49638 -171.026484 
L 92.726448 -172.268833 
L 89.956516 -173.508536 
L 87.186584 -174.745974 
L 84.416652 -175.981531 
L 81.64672 -177.21559 
L 78.876788 -178.448541 
L 76.106856 -179.680772 
L 73.336924 -180.912678 
L 70.566992 -182.144653 
L 67.79706 -183.377097 
L 65.027128 -184.610409 
L 62.257196 -185.844994 
z
" id="m55570b5564" style="stroke:#ff7f0e;stroke-opacity:0.3;"/>
    </defs>
    <g clip-path="url(#p0292dab693)">
     <use style="fill:#ff7f0e;fill-opacity:0.3;stroke:#ff7f0e;stroke-opacity:0.3;" x="0" xlink:href="#m55570b5564" y="244.8"/>
    </g>
   </g>
   <g id="matplotlib.axis_1">
    <g id="xtick_1">
     <g id="line2d_1">
      <defs>
       <path d="M 0 0 
L 0 3.5 
" id="mf764dd6068" style="stroke:#000000;stroke-width:0.8;"/>
      </defs>
      <g>
       <use style="stroke:#000000;stroke-width:0.8;" x="59.872646" xlink:href="#mf764dd6068" y="202.903963"/>
      </g>
     </g>
     <g id="text_1">
      <!-- $0$ -->
      <defs>
       <path d="M 42 31.640625 
C 42 37.75 41.90625 48.125 37.703125 56.109375 
C 34 63.109375 28.09375 65.59375 22.90625 65.59375 
C 18.09375 65.59375 12 63.40625 8.203125 56.203125 
C 4.203125 48.71875 3.796875 39.4375 3.796875 31.640625 
C 3.796875 25.953125 3.90625 17.28125 7 9.671875 
C 11.296875 -0.609375 19 -2 22.90625 -2 
C 27.5 -2 34.5 -0.109375 38.59375 9.375 
C 41.59375 16.28125 42 24.359375 42 31.640625 
z
M 22.90625 -0.40625 
C 16.5 -0.40625 12.703125 5.078125 11.296875 12.6875 
C 10.203125 18.5625 10.203125 27.15625 10.203125 32.75 
C 10.203125 40.4375 10.203125 46.828125 11.5 52.921875 
C 13.40625 61.390625 19 64 22.90625 64 
C 27 64 32.296875 61.296875 34.203125 53.125 
C 35.5 47.4375 35.59375 40.734375 35.59375 32.75 
C 35.59375 26.25 35.59375 18.265625 34.40625 12.375 
C 32.296875 1.484375 26.40625 -0.40625 22.90625 -0.40625 
z
" id="CMR17-48"/>
      </defs>
      <g transform="translate(57.381978 216.822462)scale(0.1 -0.1)">
       <use transform="scale(0.996264)" xlink:href="#CMR17-48"/>
      </g>
     </g>
    </g>
    <g id="xtick_2">
     <g id="line2d_2">
      <g>
       <use style="stroke:#000000;stroke-width:0.8;" x="107.563649" xlink:href="#mf764dd6068" y="202.903963"/>
      </g>
     </g>
     <g id="text_2">
      <!-- $2$ -->
      <defs>
       <path d="M 41.703125 15.453125 
L 39.90625 15.453125 
C 38.90625 8.375 38.09375 7.171875 37.703125 6.5625 
C 37.203125 5.765625 30 5.765625 28.59375 5.765625 
L 9.40625 5.765625 
C 13 9.671875 20 16.75 28.5 24.953125 
C 34.59375 30.734375 41.703125 37.53125 41.703125 47.421875 
C 41.703125 59.21875 32.296875 66 21.796875 66 
C 10.796875 66 4.09375 56.3125 4.09375 47.34375 
C 4.09375 43.4375 7 42.9375 8.203125 42.9375 
C 9.203125 42.9375 12.203125 43.546875 12.203125 47.03125 
C 12.203125 50.109375 9.59375 51 8.203125 51 
C 7.59375 51 7 50.90625 6.59375 50.703125 
C 8.5 59.21875 14.296875 63.40625 20.40625 63.40625 
C 29.09375 63.40625 34.796875 56.515625 34.796875 47.421875 
C 34.796875 38.734375 29.703125 31.25 24 24.75 
L 4.09375 2.28125 
L 4.09375 0 
L 39.296875 0 
z
" id="CMR17-50"/>
      </defs>
      <g transform="translate(105.072982 216.822462)scale(0.1 -0.1)">
       <use transform="scale(0.996264)" xlink:href="#CMR17-50"/>
      </g>
     </g>
    </g>
    <g id="xtick_3">
     <g id="line2d_3">
      <g>
       <use style="stroke:#000000;stroke-width:0.8;" x="155.254652" xlink:href="#mf764dd6068" y="202.903963"/>
      </g>
     </g>
     <g id="text_3">
      <!-- $4$ -->
      <defs>
       <path d="M 33.59375 64.40625 
C 33.59375 66.5 33.5 66.5 31.703125 66.5 
L 2 19.59375 
L 2 17 
L 27.796875 17 
L 27.796875 7.140625 
C 27.796875 3.5 27.59375 2.5 20.59375 2.5 
L 18.703125 2.5 
L 18.703125 0 
C 21.90625 0 27.296875 0 30.703125 0 
C 34.09375 0 39.5 0 42.703125 0 
L 42.703125 2.5 
L 40.796875 2.5 
C 33.796875 2.5 33.59375 3.5 33.59375 7.140625 
L 33.59375 17 
L 43.796875 17 
L 43.796875 19.59375 
L 33.59375 19.59375 
z
M 28.09375 57.859375 
L 28.09375 19.59375 
L 4 19.59375 
z
" id="CMR17-52"/>
      </defs>
      <g transform="translate(152.763985 216.822462)scale(0.1 -0.1)">
       <use transform="scale(0.996264)" xlink:href="#CMR17-52"/>
      </g>
     </g>
    </g>
    <g id="xtick_4">
     <g id="line2d_4">
      <g>
       <use style="stroke:#000000;stroke-width:0.8;" x="202.945655" xlink:href="#mf764dd6068" y="202.903963"/>
      </g>
     </g>
     <g id="text_4">
      <!-- $6$ -->
      <defs>
       <path d="M 10.59375 34 
C 10.59375 57.65625 21.796875 63 28.296875 63 
C 30.40625 63 35.5 62.640625 37.5 59 
C 35.90625 59 32.90625 59 32.90625 55.515625 
C 32.90625 52.828125 35.09375 51.921875 36.5 51.921875 
C 37.40625 51.921875 40.09375 52.3125 40.09375 55.625 
C 40.09375 61.78125 35.09375 65.296875 28.203125 65.296875 
C 16.296875 65.296875 3.796875 52.96875 3.796875 31 
C 3.796875 3.953125 15.09375 -2 23.09375 -2 
C 32.796875 -2 42 6.671875 42 20.046875 
C 42 32.515625 33.90625 41.59375 23.703125 41.59375 
C 17.59375 41.59375 13.09375 37.609375 10.59375 30.625 
z
M 23.09375 0.390625 
C 10.796875 0.390625 10.796875 18.75 10.796875 22.4375 
C 10.796875 29.625 14.203125 40 23.5 40 
C 25.203125 40 30.09375 40 33.40625 33.125 
C 35.203125 29.21875 35.203125 25.140625 35.203125 20.140625 
C 35.203125 14.75 35.203125 10.78125 33.09375 6.78125 
C 30.90625 2.671875 27.703125 0.390625 23.09375 0.390625 
z
" id="CMR17-54"/>
      </defs>
      <g transform="translate(200.454988 216.822462)scale(0.1 -0.1)">
       <use transform="scale(0.996264)" xlink:href="#CMR17-54"/>
      </g>
     </g>
    </g>
    <g id="xtick_5">
     <g id="line2d_5">
      <g>
       <use style="stroke:#000000;stroke-width:0.8;" x="250.636659" xlink:href="#mf764dd6068" y="202.903963"/>
      </g>
     </g>
     <g id="text_5">
      <!-- $8$ -->
      <defs>
       <path d="M 27.203125 35.375 
C 33.5 38.546875 39.90625 43.328125 39.90625 50.984375 
C 39.90625 60.015625 31.09375 65.296875 23 65.296875 
C 13.90625 65.296875 5.90625 58.734375 5.90625 49.6875 
C 5.90625 47.203125 6.5 42.921875 10.40625 39.140625 
C 11.40625 38.15625 15.59375 35.171875 18.296875 33.28125 
C 13.796875 30.984375 3.296875 25.53125 3.296875 14.59375 
C 3.296875 4.359375 13.09375 -2 22.796875 -2 
C 33.5 -2 42.5 5.65625 42.5 15.78125 
C 42.5 24.84375 36.40625 29.015625 32.40625 31.703125 
z
M 14.09375 44.09375 
C 13.296875 44.59375 9.296875 47.671875 9.296875 52.359375 
C 9.296875 58.421875 15.59375 63 22.796875 63 
C 30.703125 63 36.5 57.4375 36.5 50.96875 
C 36.5 41.703125 26.09375 36.421875 25.59375 36.421875 
C 25.5 36.421875 25.40625 36.421875 24.59375 37.03125 
z
M 32.5 23.734375 
C 34 22.640625 38.796875 19.375 38.796875 13.296875 
C 38.796875 5.953125 31.40625 0.390625 23 0.390625 
C 13.90625 0.390625 7 6.84375 7 14.6875 
C 7 22.546875 13.09375 29.09375 20 32.1875 
z
" id="CMR17-56"/>
      </defs>
      <g transform="translate(248.145991 216.822462)scale(0.1 -0.1)">
       <use transform="scale(0.996264)" xlink:href="#CMR17-56"/>
      </g>
     </g>
    </g>
    <g id="xtick_6">
     <g id="line2d_6">
      <g>
       <use style="stroke:#000000;stroke-width:0.8;" x="298.327662" xlink:href="#mf764dd6068" y="202.903963"/>
      </g>
     </g>
     <g id="text_6">
      <!-- $10$ -->
      <defs>
       <path d="M 26.59375 63.40625 
C 26.59375 65.5 26.5 65.5 25.09375 65.5 
C 21.203125 61.1875 15.296875 59.796875 9.703125 59.796875 
C 9.40625 59.796875 8.90625 59.796875 8.796875 59.5 
C 8.703125 59.296875 8.703125 59.09375 8.703125 57 
C 11.796875 57 17 57.59375 21 59.984375 
L 21 7.203125 
C 21 3.6875 20.796875 2.5 12.203125 2.5 
L 9.203125 2.5 
L 9.203125 0 
C 14 0 19 0 23.796875 0 
C 28.59375 0 33.59375 0 38.40625 0 
L 38.40625 2.5 
L 35.40625 2.5 
C 26.796875 2.5 26.59375 3.59375 26.59375 7.15625 
z
" id="CMR17-49"/>
      </defs>
      <g transform="translate(293.346326 216.822462)scale(0.1 -0.1)">
       <use transform="scale(0.996264)" xlink:href="#CMR17-49"/>
       <use transform="translate(45.690477 0)scale(0.996264)" xlink:href="#CMR17-48"/>
      </g>
     </g>
    </g>
    <g id="xtick_7">
     <g id="line2d_7">
      <g>
       <use style="stroke:#000000;stroke-width:0.8;" x="346.018665" xlink:href="#mf764dd6068" y="202.903963"/>
      </g>
     </g>
     <g id="text_7">
      <!-- $12$ -->
      <g transform="translate(341.037329 216.822462)scale(0.1 -0.1)">
       <use transform="scale(0.996264)" xlink:href="#CMR17-49"/>
       <use transform="translate(45.690477 0)scale(0.996264)" xlink:href="#CMR17-50"/>
      </g>
     </g>
    </g>
    <g id="text_8">
     <!-- $q^2$ [GeV$^2$] -->
     <defs>
      <path d="M 44.09375 43.109375 
C 44.09375 43.59375 43.703125 44 43.203125 44 
C 42.40625 44 38.5 40.390625 36.59375 36.90625 
C 34.796875 41.34375 31.703125 44 27.40625 44 
C 16.09375 44 3.90625 29.4375 3.90625 14.671875 
C 3.90625 4.796875 9.703125 -1 16.5 -1 
C 21.796875 -1 26.203125 3.015625 28.296875 5.296875 
L 28.40625 5.203125 
L 24.59375 -9.609375 
L 23.703125 -13.15625 
C 22.796875 -16.109375 21.296875 -16.109375 16.59375 -16.109375 
C 15.5 -16.109375 14.5 -16.109375 14.5 -18 
C 14.5 -18.703125 15.09375 -19 15.796875 -19 
C 17.203125 -19 19 -19 20.40625 -19 
L 30.59375 -19 
C 32.09375 -19 33.796875 -19 35.296875 -19 
C 35.90625 -19 37.09375 -19 37.09375 -17.109375 
C 37.09375 -16.109375 36.296875 -16.109375 34.796875 -16.109375 
C 30.09375 -16.109375 29.796875 -15.40625 29.796875 -14.609375 
C 29.796875 -14.125 29.90625 -14.03125 30.203125 -12.734375 
z
M 30 11.90625 
C 29.5 10.1875 29.5 10 28.09375 8.09375 
C 25.90625 5.296875 21.5 1 16.796875 1 
C 12.703125 1 10.40625 4.703125 10.40625 10.59375 
C 10.40625 16.09375 13.5 27.296875 15.40625 31.5 
C 18.796875 38.5 23.5 42.109375 27.40625 42.109375 
C 34 42.109375 35.296875 33.90625 35.296875 33.109375 
C 35.296875 33.015625 35 31.6875 34.90625 31.5 
z
" id="CMMI12-113"/>
      <path d="M 23.5 -25 
L 23.5 -21.515625 
L 14.09375 -21.515625 
L 14.09375 71 
L 23.5 71 
L 23.5 74.484375 
L 10.59375 74.484375 
L 10.59375 -25 
z
" id="CMR17-91"/>
      <path d="M 62.09375 19.265625 
C 62.09375 23.015625 62.40625 23.515625 68.59375 23.515625 
L 68.59375 26.09375 
C 66.203125 26 60.796875 26 58.09375 26 
C 55.296875 26 47.5 26 43.703125 26 
L 43.703125 23.515625 
L 46.703125 23.515625 
C 55.296875 23.515625 55.5 22.40625 55.5 18.765625 
L 55.5 12.09375 
C 55.5 0.984375 42.5 0.984375 39.40625 0.984375 
C 29.09375 0.984375 12.203125 7.984375 12.203125 33.75 
C 12.203125 59.5 28.796875 66.40625 38.5 66.40625 
C 49.796875 66.40625 58 56.65625 59.90625 42.828125 
C 60.09375 41.625 60.09375 41.421875 61 41.421875 
C 62.09375 41.421875 62.09375 41.625 62.09375 43.421875 
L 62.09375 67 
C 62.09375 68.78125 62 68.890625 61.40625 68.890625 
C 61 68.890625 60.90625 68.78125 60.203125 67.59375 
L 55.796875 59.234375 
C 50.90625 65.421875 44.90625 69 37.203125 69 
C 20.09375 69 4.59375 54 4.59375 33.5625 
C 4.59375 13.203125 19.796875 -2 37.40625 -2 
C 45.5 -2 53.40625 0.875 56.5 6.515625 
C 58.203125 2.46875 61 -0.3125 61.5 -0.3125 
C 62 -0.3125 62.09375 -0.203125 62.09375 1.5625 
z
" id="CMR17-71"/>
      <path d="M 38.09375 23 
C 38.5 23.40625 38.5 23.609375 38.5 24.625 
C 38.5 34.96875 33.09375 44 21.703125 44 
C 11.09375 44 2.703125 33.890625 2.703125 21.609375 
C 2.703125 8.609375 12.203125 -1 22.796875 -1 
C 34 -1 38.40625 9.484375 38.40625 11.5625 
C 38.40625 12.25 37.796875 12.25 37.59375 12.25 
C 36.90625 12.25 36.796875 12.046875 36.40625 10.875 
C 34.203125 4.140625 28.703125 0.796875 23.5 0.796875 
C 19.203125 0.796875 14.90625 3.171875 12.203125 7.5 
C 9.09375 12.546875 9.09375 18.375 9.09375 23 
z
M 9.203125 24.5 
C 9.90625 39.140625 17.59375 42.40625 21.59375 42.40625 
C 28.40625 42.40625 33 35.890625 33.09375 24.5 
z
" id="CMR17-101"/>
      <path d="M 59 58.515625 
C 59.90625 60.71875 61.5 65 68.203125 65 
L 68.203125 67.6875 
C 65.90625 67.484375 63.296875 67.484375 60.796875 67.484375 
C 58.40625 67.484375 54.296875 67.484375 52 67.6875 
L 52 65 
C 57 65 57.203125 61.5 57.203125 60.90625 
C 57.203125 59.796875 56.90625 59.109375 56.59375 58.3125 
L 36.90625 6.96875 
L 16.296875 60.71875 
C 16 61.421875 15.796875 61.921875 15.796875 62.40625 
C 15.796875 65 19.796875 65 21.90625 65 
L 21.90625 67.484375 
C 18.703125 67.484375 14 67.484375 10.703125 67.484375 
C 8.09375 67.484375 3.40625 67.484375 1 67.6875 
L 1 65 
C 6.796875 65 7.90625 64.609375 9.09375 61.421875 
L 32.90625 -0.40625 
C 33.40625 -1.796875 33.5 -2 34.59375 -2 
C 35.703125 -2 35.796875 -1.796875 36.296875 -0.40625 
z
" id="CMR17-86"/>
      <path d="M 14.296875 74.484375 
L 1.40625 74.484375 
L 1.40625 71 
L 10.796875 71 
L 10.796875 -21.515625 
L 1.40625 -21.515625 
L 1.40625 -25 
L 14.296875 -25 
z
" id="CMR17-93"/>
     </defs>
     <g transform="translate(174.570989 234.113076)scale(0.14 -0.14)">
      <use transform="scale(0.996264)" xlink:href="#CMMI12-113"/>
      <use transform="translate(46.826324 36.153639)scale(0.697382)" xlink:href="#CMR17-50"/>
      <use transform="translate(109.383604 0)scale(0.996264)" xlink:href="#CMR17-91"/>
      <use transform="translate(134.254663 0)scale(0.996264)" xlink:href="#CMR17-71"/>
      <use transform="translate(206.610009 0)scale(0.996264)" xlink:href="#CMR17-101"/>
      <use transform="translate(247.095669 0)scale(0.996264)" xlink:href="#CMR17-86"/>
      <use transform="translate(316.168099 36.153639)scale(0.697382)" xlink:href="#CMR17-50"/>
      <use transform="translate(348.649413 0)scale(0.996264)" xlink:href="#CMR17-93"/>
     </g>
    </g>
   </g>
   <g id="matplotlib.axis_2">
    <g id="ytick_1">
     <g id="line2d_8">
      <defs>
       <path d="M 0 0 
L -3.5 0 
" id="m73e134e23a" style="stroke:#000000;stroke-width:0.8;"/>
      </defs>
      <g>
       <use style="stroke:#000000;stroke-width:0.8;" x="59.872646" xlink:href="#m73e134e23a" y="194.08059"/>
      </g>
     </g>
     <g id="text_9">
      <!-- $0.000$ -->
      <defs>
       <path d="M 18.40625 4.796875 
C 18.40625 7.6875 16 9.671875 13.59375 9.671875 
C 10.703125 9.671875 8.703125 7.28125 8.703125 4.890625 
C 8.703125 2 11.09375 0 13.5 0 
C 16.40625 0 18.40625 2.390625 18.40625 4.796875 
z
" id="CMMI12-58"/>
      </defs>
      <g transform="translate(30.179897 197.539839)scale(0.1 -0.1)">
       <use transform="scale(0.996264)" xlink:href="#CMR17-48"/>
       <use transform="translate(45.690477 0)scale(0.996264)" xlink:href="#CMMI12-58"/>
       <use transform="translate(72.787654 0)scale(0.996264)" xlink:href="#CMR17-48"/>
       <use transform="translate(118.478131 0)scale(0.996264)" xlink:href="#CMR17-48"/>
       <use transform="translate(164.168608 0)scale(0.996264)" xlink:href="#CMR17-48"/>
      </g>
     </g>
    </g>
    <g id="ytick_2">
     <g id="line2d_9">
      <g>
       <use style="stroke:#000000;stroke-width:0.8;" x="59.872646" xlink:href="#m73e134e23a" y="157.005998"/>
      </g>
     </g>
     <g id="text_10">
      <!-- $0.001$ -->
      <g transform="translate(30.179897 160.465247)scale(0.1 -0.1)">
       <use transform="scale(0.996264)" xlink:href="#CMR17-48"/>
       <use transform="translate(45.690477 0)scale(0.996264)" xlink:href="#CMMI12-58"/>
       <use transform="translate(72.787654 0)scale(0.996264)" xlink:href="#CMR17-48"/>
       <use transform="translate(118.478131 0)scale(0.996264)" xlink:href="#CMR17-48"/>
       <use transform="translate(164.168608 0)scale(0.996264)" xlink:href="#CMR17-49"/>
      </g>
     </g>
    </g>
    <g id="ytick_3">
     <g id="line2d_10">
      <g>
       <use style="stroke:#000000;stroke-width:0.8;" x="59.872646" xlink:href="#m73e134e23a" y="119.931406"/>
      </g>
     </g>
     <g id="text_11">
      <!-- $0.002$ -->
      <g transform="translate(30.179897 123.390655)scale(0.1 -0.1)">
       <use transform="scale(0.996264)" xlink:href="#CMR17-48"/>
       <use transform="translate(45.690477 0)scale(0.996264)" xlink:href="#CMMI12-58"/>
       <use transform="translate(72.787654 0)scale(0.996264)" xlink:href="#CMR17-48"/>
       <use transform="translate(118.478131 0)scale(0.996264)" xlink:href="#CMR17-48"/>
       <use transform="translate(164.168608 0)scale(0.996264)" xlink:href="#CMR17-50"/>
      </g>
     </g>
    </g>
    <g id="ytick_4">
     <g id="line2d_11">
      <g>
       <use style="stroke:#000000;stroke-width:0.8;" x="59.872646" xlink:href="#m73e134e23a" y="82.856814"/>
      </g>
     </g>
     <g id="text_12">
      <!-- $0.003$ -->
      <defs>
       <path d="M 22.09375 33.703125 
C 31 33.703125 34.90625 25.96875 34.90625 17.03125 
C 34.90625 5 28.5 0.390625 22.703125 0.390625 
C 17.40625 0.390625 8.796875 3.03125 6.09375 10.828125 
C 6.59375 10.625 7.09375 10.625 7.59375 10.625 
C 10 10.625 11.796875 12.21875 11.796875 14.8125 
C 11.796875 17.703125 9.59375 19 7.59375 19 
C 5.90625 19 3.296875 18.203125 3.296875 14.46875 
C 3.296875 5.234375 12.296875 -2 22.90625 -2 
C 34 -2 42.5 6.71875 42.5 16.953125 
C 42.5 26.671875 34.5 33.703125 25 34.796875 
C 32.59375 36.375 39.90625 43.0625 39.90625 52.015625 
C 39.90625 59.6875 32 65.296875 23 65.296875 
C 13.90625 65.296875 5.90625 59.828125 5.90625 52.015625 
C 5.90625 48.59375 8.5 48 9.796875 48 
C 11.90625 48 13.703125 49.296875 13.703125 51.890625 
C 13.703125 54.46875 11.90625 55.765625 9.796875 55.765625 
C 9.40625 55.765625 8.90625 55.765625 8.5 55.578125 
C 11.40625 61.859375 19.296875 63 22.796875 63 
C 26.296875 63 32.90625 61.328125 32.90625 51.875 
C 32.90625 49.109375 32.5 44.1875 29.09375 39.84375 
C 26.09375 36 22.703125 36 19.40625 35.6875 
C 18.90625 35.6875 16.59375 35.453125 16.203125 35.453125 
C 15.5 35.359375 15.09375 35.265625 15.09375 34.5 
C 15.09375 33.796875 15.203125 33.703125 17.203125 33.703125 
z
" id="CMR17-51"/>
      </defs>
      <g transform="translate(30.179897 86.316063)scale(0.1 -0.1)">
       <use transform="scale(0.996264)" xlink:href="#CMR17-48"/>
       <use transform="translate(45.690477 0)scale(0.996264)" xlink:href="#CMMI12-58"/>
       <use transform="translate(72.787654 0)scale(0.996264)" xlink:href="#CMR17-48"/>
       <use transform="translate(118.478131 0)scale(0.996264)" xlink:href="#CMR17-48"/>
       <use transform="translate(164.168608 0)scale(0.996264)" xlink:href="#CMR17-51"/>
      </g>
     </g>
    </g>
    <g id="ytick_5">
     <g id="line2d_12">
      <g>
       <use style="stroke:#000000;stroke-width:0.8;" x="59.872646" xlink:href="#m73e134e23a" y="45.782222"/>
      </g>
     </g>
     <g id="text_13">
      <!-- $0.004$ -->
      <g transform="translate(30.179897 49.241471)scale(0.1 -0.1)">
       <use transform="scale(0.996264)" xlink:href="#CMR17-48"/>
       <use transform="translate(45.690477 0)scale(0.996264)" xlink:href="#CMMI12-58"/>
       <use transform="translate(72.787654 0)scale(0.996264)" xlink:href="#CMR17-48"/>
       <use transform="translate(118.478131 0)scale(0.996264)" xlink:href="#CMR17-48"/>
       <use transform="translate(164.168608 0)scale(0.996264)" xlink:href="#CMR17-52"/>
      </g>
     </g>
    </g>
    <g id="text_14">
     <!-- $\frac{d\text{BR}}{dq^2}(B^0\to D^- e^+\nu_e)$ -->
     <defs>
      <path d="M 50.296875 66.515625 
C 50.40625 66.90625 50.59375 67.5 50.59375 68 
C 50.59375 69 49.59375 69 49.40625 69 
C 49.296875 69 44.40625 68.5625 43.90625 68.4375 
C 42.203125 68.328125 40.703125 68.09375 38.90625 68.09375 
C 36.40625 67.890625 35.703125 67.796875 35.703125 66 
C 35.703125 65 36.5 65 37.90625 65 
C 42.796875 65 42.90625 64.109375 42.90625 63.125 
C 42.90625 62.53125 42.703125 61.75 42.59375 61.453125 
L 36.5 37.421875 
C 35.40625 40.015625 32.703125 44 27.5 44 
C 16.203125 44 4 29.4375 4 14.671875 
C 4 4.796875 9.796875 -1 16.59375 -1 
C 22.09375 -1 26.796875 3.296875 29.59375 6.59375 
C 30.59375 0.703125 35.296875 -1 38.296875 -1 
C 41.296875 -1 43.703125 0.796875 45.5 4.390625 
C 47.09375 7.78125 48.5 13.875 48.5 14.265625 
C 48.5 14.765625 48.09375 15.171875 47.5 15.171875 
C 46.59375 15.171875 46.5 14.671875 46.09375 13.171875 
C 44.59375 7.28125 42.703125 1 38.59375 1 
C 35.703125 1 35.5 3.578125 35.5 5.578125 
C 35.5 5.96875 35.5 8.046875 36.203125 10.84375 
z
M 30.09375 11.875 
C 29.59375 10.171875 29.59375 9.984375 28.203125 8.078125 
C 26 5.28125 21.59375 1 16.90625 1 
C 12.796875 1 10.5 4.6875 10.5 10.578125 
C 10.5 16.0625 13.59375 27.234375 15.5 31.4375 
C 18.90625 38.421875 23.59375 42.015625 27.5 42.015625 
C 34.09375 42.015625 35.40625 33.828125 35.40625 33.03125 
C 35.40625 32.9375 35.09375 31.625 35 31.4375 
z
" id="CMMI12-100"/>
      <path d="M 5.203125 68 
L 5.203125 65.40625 
C 12.09375 65.40625 13.203125 65.40625 13.203125 60.9375 
L 13.203125 7.0625 
C 13.203125 2.59375 12.09375 2.59375 5.203125 2.59375 
L 5.203125 0 
L 39.59375 0 
C 52.40625 0 60.703125 9.109375 60.703125 18.1875 
C 60.703125 27.203125 52.5 34.890625 41.796875 34.890625 
C 51.40625 36.8125 58.09375 43.296875 58.09375 51 
C 58.09375 59.40625 49.90625 68 37 68 
z
M 19.5 36 
L 19.5 61.515625 
C 19.5 64.921875 19.703125 65.40625 23.703125 65.40625 
L 36.5 65.40625 
C 46.40625 65.40625 50.796875 57.40625 50.796875 51.203125 
C 50.796875 43.609375 44.703125 36 33.90625 36 
z
M 23.703125 2.59375 
C 19.703125 2.59375 19.5 3.078125 19.5 6.453125 
L 19.5 34.40625 
L 38 34.40625 
C 48.296875 34.40625 53.296875 25.390625 53.296875 18.15625 
C 53.296875 10.921875 47.59375 2.59375 36.703125 2.59375 
z
" id="CMR17-66"/>
      <path d="M 39.203125 33.53125 
C 48.703125 35.4375 56.703125 41.8125 56.703125 49.78125 
C 56.703125 59.140625 46.09375 67.59375 32.09375 67.59375 
L 5.203125 67.59375 
L 5.203125 65 
C 12.09375 65 13.203125 65 13.203125 60.515625 
L 13.203125 6.484375 
C 13.203125 2 12.09375 2 5.203125 2 
L 5.203125 -0.40625 
C 8.09375 -0.40625 13.296875 -0.40625 16.40625 -0.40625 
C 19.5 -0.40625 24.703125 -0.40625 27.59375 -0.40625 
L 27.59375 2 
C 20.703125 2 19.59375 2 19.59375 6.515625 
L 19.59375 33 
L 31.296875 33 
C 37 33 40.203125 30.6875 41.59375 29.390625 
C 45.59375 25.5 45.59375 22.796875 45.59375 16 
C 45.59375 9.296875 45.59375 5.890625 48.59375 2.5 
C 52.40625 -1.59375 57.5 -2 59.703125 -2 
C 67.09375 -2 68.203125 6.1875 68.203125 7.859375 
C 68.203125 8.4375 68.203125 9.140625 67.296875 9.140625 
C 66.5 9.140625 66.40625 8.546875 66.40625 8.15625 
C 65.90625 1.75 63 -0.40625 59.90625 -0.40625 
C 54.40625 -0.40625 53.796875 5.859375 53.203125 11.9375 
C 52.90625 14.03125 52.703125 15.515625 52.5 17.703125 
C 51.90625 22.6875 51.09375 29.953125 39.203125 33.53125 
z
M 31 34.59375 
L 19.59375 34.59375 
L 19.59375 61.140625 
C 19.59375 64.515625 19.796875 65 23.796875 65 
L 31.09375 65 
C 39.40625 65 49.09375 62.140625 49.09375 49.84375 
C 49.09375 37.0625 38.5 34.59375 31 34.59375 
z
" id="CMR17-82"/>
      <path d="M 30.59375 -24.390625 
C 30.59375 -24.296875 30.59375 -24.09375 30.296875 -23.796875 
C 25.703125 -19.125 13.40625 -6.359375 13.40625 24.703125 
C 13.40625 55.765625 25.5 68.421875 30.40625 73.390625 
C 30.40625 73.5 30.59375 73.703125 30.59375 74 
C 30.59375 74.296875 30.296875 74.5 29.90625 74.5 
C 28.796875 74.5 20.296875 67.125 15.40625 56.15625 
C 10.40625 45.109375 9 34.359375 9 24.8125 
C 9 17.625 9.703125 5.484375 15.703125 -7.359375 
C 20.5 -17.734375 28.703125 -25 29.90625 -25 
C 30.40625 -25 30.59375 -24.796875 30.59375 -24.390625 
z
" id="CMR17-40"/>
      <path d="M 36.59375 61.265625 
C 37.5 65 37.90625 65 41.796875 65 
L 54.796875 65 
C 66.09375 65 66.09375 55.375 66.09375 54.453125 
C 66.09375 46.34375 58 36 44.796875 36 
L 30.40625 36 
z
M 53.5 35.546875 
C 64.40625 37.53125 74.296875 45.09375 74.296875 54.265625 
C 74.296875 62.03125 67.40625 68 56.09375 68 
L 24 68 
C 22.09375 68 21.203125 68 21.203125 66.03125 
C 21.203125 65 22.09375 65 23.59375 65 
C 29.703125 65 29.703125 64.25 29.703125 63.1875 
C 29.703125 63 29.703125 62.390625 29.296875 60.890625 
L 15.796875 7.375 
C 14.90625 3.890625 14.703125 2.890625 7.703125 2.890625 
C 5.796875 2.890625 4.796875 2.890625 4.796875 1.09375 
C 4.796875 0 5.40625 0 7.40625 0 
L 41.703125 0 
C 57 0 68.796875 11.546875 68.796875 21.609375 
C 68.796875 29.78125 61.59375 34.75 53.5 35.546875 
z
M 39.296875 2.890625 
L 25.796875 2.890625 
C 24.40625 2.890625 24.203125 2.890625 23.59375 3 
C 22.5 3.09375 22.40625 3.296875 22.40625 4.078125 
C 22.40625 4.765625 22.59375 5.359375 22.796875 6.234375 
L 29.796875 34 
L 48.59375 34 
C 60.40625 34 60.40625 23.171875 60.40625 22.390625 
C 60.40625 12.9375 51.703125 2.890625 39.296875 2.890625 
z
" id="CMMI12-66"/>
      <path d="M 83.40625 23 
C 77.90625 18.796875 75.203125 14.703125 74.40625 13.40625 
C 69.90625 6.5 69.09375 0.203125 69.09375 0.09375 
C 69.09375 -1.09375 70.296875 -1.09375 71.09375 -1.09375 
C 72.796875 -1.09375 72.90625 -0.90625 73.296875 0.90625 
C 75.59375 10.703125 81.5 19.09375 92.796875 23.703125 
C 94 24.09375 94.296875 24.296875 94.296875 25 
C 94.296875 25.703125 93.703125 26 93.5 26.09375 
C 89.09375 27.796875 77 32.796875 73.203125 49.59375 
C 72.90625 50.796875 72.796875 51.09375 71.09375 51.09375 
C 70.296875 51.09375 69.09375 51.09375 69.09375 49.890625 
C 69.09375 49.6875 70 43.390625 74.203125 36.703125 
C 76.203125 33.703125 79.09375 30.203125 83.40625 27 
L 9.09375 27 
C 7.296875 27 5.5 27 5.5 25 
C 5.5 23 7.296875 23 9.09375 23 
z
" id="CMSY10-33"/>
      <path d="M 15.703125 7.375 
C 14.796875 3.890625 14.59375 2.890625 7.59375 2.890625 
C 5.703125 2.890625 4.703125 2.890625 4.703125 1.09375 
C 4.703125 0 5.296875 0 7.296875 0 
L 39 0 
C 59.203125 0 78.90625 20.8125 78.90625 43.015625 
C 78.90625 57.359375 70.296875 68 56 68 
L 23.90625 68 
C 22 68 21.09375 68 21.09375 66.109375 
C 21.09375 65.109375 22 65.109375 23.5 65.109375 
C 29.59375 65.109375 29.59375 64.3125 29.59375 63.21875 
C 29.59375 63.03125 29.59375 62.421875 29.203125 60.921875 
z
M 36.796875 61.421875 
C 37.703125 65.109375 38.09375 65.109375 42 65.109375 
L 53 65.109375 
C 62.40625 65.109375 71 60.03125 71 46.296875 
C 71 41.3125 69 24 59.296875 13.046875 
C 56.5 9.765625 48.90625 2.890625 37.40625 2.890625 
L 26 2.890625 
C 24.59375 2.890625 24.40625 2.890625 23.796875 3 
C 22.703125 3.09375 22.59375 3.296875 22.59375 4.09375 
C 22.59375 4.796875 22.796875 5.390625 23 6.28125 
z
" id="CMMI12-68"/>
      <path d="M 65.90625 23 
C 67.59375 23 69.40625 23 69.40625 25 
C 69.40625 27 67.59375 27 65.90625 27 
L 11.796875 27 
C 10.09375 27 8.296875 27 8.296875 25 
C 8.296875 23 10.09375 23 11.796875 23 
z
" id="CMSY10-0"/>
      <path d="M 17.90625 23.109375 
C 20.59375 23.109375 27.40625 23.109375 32.203125 24.921875 
C 39.796875 27.859375 40.5 33.71875 40.5 35.53125 
C 40.5 39.96875 36.703125 44 30.09375 44 
C 19.59375 44 4.5 34.53125 4.5 16.765625 
C 4.5 6.28125 10.5 -1 19.59375 -1 
C 33.203125 -1 41.796875 9.515625 41.796875 10.8125 
C 41.796875 11.40625 41.203125 11.90625 40.796875 11.90625 
C 40.5 11.90625 40.40625 11.8125 39.5 10.921875 
C 33.09375 2.484375 23.59375 1 19.796875 1 
C 14.09375 1 11.09375 5.46875 11.09375 12.84375 
C 11.09375 14.234375 11.09375 16.734375 12.59375 23.109375 
z
M 13.09375 25 
C 17.40625 40.5 26.90625 42.015625 30.09375 42.015625 
C 34.5 42.015625 37.5 39.40625 37.5 35.578125 
C 37.5 25 21.5 25 17.296875 25 
z
" id="CMMI12-101"/>
      <path d="M 37.703125 23 
L 64.203125 23 
C 65.59375 23 67.296875 23 67.296875 24.6875 
C 67.296875 26.484375 65.703125 26.484375 64.203125 26.484375 
L 37.703125 26.484375 
L 37.703125 52.90625 
C 37.703125 54.296875 37.703125 56 36 56 
C 34.203125 56 34.203125 54.40625 34.203125 52.90625 
L 34.203125 26.484375 
L 7.703125 26.484375 
C 6.296875 26.484375 4.59375 26.484375 4.59375 24.796875 
C 4.59375 23 6.203125 23 7.703125 23 
L 34.203125 23 
L 34.203125 -3.40625 
C 34.203125 -4.796875 34.203125 -6.5 35.90625 -6.5 
C 37.703125 -6.5 37.703125 -4.90625 37.703125 -3.40625 
z
" id="CMR17-43"/>
      <path d="M 22 43.015625 
C 22 43.40625 21.703125 44 20.90625 44 
C 20.203125 44 10.796875 42.984375 9.296875 42.984375 
C 8.203125 42.875 7.203125 42.78125 7.203125 40.984375 
C 7.203125 40 8 40 9.40625 40 
C 14.09375 40 14.40625 39.296875 14.40625 38.203125 
C 14.40625 37.796875 14.203125 36.609375 14.09375 36.21875 
L 5.296875 1 
C 5.296875 0.59375 5.59375 0 6.296875 0 
L 8.40625 0 
C 9.796875 0 25 3.59375 36.703125 15.5625 
C 49.59375 28.84375 51.40625 41.125 51.40625 41.515625 
C 51.40625 43.109375 50.09375 44 48.796875 44 
C 45.90625 44 45.203125 41.3125 45 40.609375 
C 39.09375 19.75 25.40625 7.390625 12.09375 3 
z
" id="CMMI12-23"/>
      <path d="M 26.296875 24.703125 
C 26.296875 31.875 25.59375 44.015625 19.59375 56.859375 
C 14.796875 67.234375 6.59375 74.5 5.40625 74.5 
C 5.09375 74.5 4.703125 74.390625 4.703125 73.890625 
C 4.703125 73.703125 4.796875 73.59375 4.90625 73.390625 
C 9.703125 68.40625 21.90625 55.75 21.90625 24.75 
C 21.90625 -6.359375 9.796875 -19.015625 4.90625 -24.015625 
C 4.796875 -24.203125 4.703125 -24.3125 4.703125 -24.5 
C 4.703125 -25 5.09375 -25 5.40625 -25 
C 6.5 -25 15 -17.625 19.90625 -6.65625 
C 24.90625 4.390625 26.296875 15.140625 26.296875 24.703125 
z
" id="CMR17-41"/>
     </defs>
     <g transform="translate(23.467868 164.984402)rotate(-90)scale(0.14 -0.14)">
      <use transform="translate(0 73.581354)scale(0.697382)" xlink:href="#CMMI12-100"/>
      <use transform="translate(35.482207 73.581354)scale(0.697382)" xlink:href="#CMR17-66"/>
      <use transform="translate(81.114126 73.581354)scale(0.697382)" xlink:href="#CMR17-82"/>
      <use transform="translate(18.481932 0)scale(0.697382)" xlink:href="#CMMI12-100"/>
      <use transform="translate(53.964138 0)scale(0.697382)" xlink:href="#CMMI12-113"/>
      <use transform="translate(86.742404 20.146573)scale(0.498132)" xlink:href="#CMR17-50"/>
      <use transform="translate(129.763205 34.355253)scale(0.996264)" xlink:href="#CMR17-40"/>
      <use transform="translate(165.043973 34.355253)scale(0.996264)" xlink:href="#CMMI12-66"/>
      <use transform="translate(244.179496 70.508892)scale(0.697382)" xlink:href="#CMR17-48"/>
      <use transform="translate(304.334819 34.355253)scale(0.996264)" xlink:href="#CMSY10-33"/>
      <use transform="translate(431.635502 34.355253)scale(0.996264)" xlink:href="#CMMI12-68"/>
      <use transform="translate(515.33945 70.508892)scale(0.697382)" xlink:href="#CMSY10-0"/>
      <use transform="translate(570.078575 34.355253)scale(0.996264)" xlink:href="#CMMI12-101"/>
      <use transform="translate(615.290576 70.508892)scale(0.697382)" xlink:href="#CMR17-43"/>
      <use transform="translate(665.988839 34.355253)scale(0.996264)" xlink:href="#CMMI12-23"/>
      <use transform="translate(714.187322 19.411338)scale(0.697382)" xlink:href="#CMMI12-101"/>
      <use transform="translate(746.33371 34.355253)scale(0.996264)" xlink:href="#CMR17-41"/>
      <path d="M 0 58.766138 
L 128.567691 58.766138 
L 128.567691 59.757583 
L 0 59.757583 
L 0 58.766138 
z
"/>
     </g>
    </g>
   </g>
   <g id="LineCollection_1">
    <path clip-path="url(#p0292dab693)" d="M 59.872646 39.155837 
L 83.002783 39.155837 
" style="fill:none;stroke:#000000;stroke-width:1.5;"/>
    <path clip-path="url(#p0292dab693)" d="M 83.002783 56.612801 
L 111.140474 56.612801 
" style="fill:none;stroke:#000000;stroke-width:1.5;"/>
    <path clip-path="url(#p0292dab693)" d="M 111.140474 62.615412 
L 139.516621 62.615412 
" style="fill:none;stroke:#000000;stroke-width:1.5;"/>
    <path clip-path="url(#p0292dab693)" d="M 139.516621 83.299106 
L 167.654313 83.299106 
" style="fill:none;stroke:#000000;stroke-width:1.5;"/>
    <path clip-path="url(#p0292dab693)" d="M 167.654313 108.08538 
L 196.03046 108.08538 
" style="fill:none;stroke:#000000;stroke-width:1.5;"/>
    <path clip-path="url(#p0292dab693)" d="M 196.03046 134.323203 
L 224.168152 134.323203 
" style="fill:none;stroke:#000000;stroke-width:1.5;"/>
    <path clip-path="url(#p0292dab693)" d="M 224.168152 142.678679 
L 252.305844 142.678679 
" style="fill:none;stroke:#000000;stroke-width:1.5;"/>
    <path clip-path="url(#p0292dab693)" d="M 252.305844 154.988715 
L 280.68199 154.988715 
" style="fill:none;stroke:#000000;stroke-width:1.5;"/>
    <path clip-path="url(#p0292dab693)" d="M 280.68199 174.867136 
L 308.819682 174.867136 
" style="fill:none;stroke:#000000;stroke-width:1.5;"/>
    <path clip-path="url(#p0292dab693)" d="M 308.819682 192.790336 
L 337.195829 192.790336 
" style="fill:none;stroke:#000000;stroke-width:1.5;"/>
   </g>
   <g id="LineCollection_2">
    <path clip-path="url(#p0292dab693)" d="M 71.437714 50.053938 
L 71.437714 28.257737 
" style="fill:none;stroke:#000000;stroke-width:1.5;"/>
    <path clip-path="url(#p0292dab693)" d="M 97.071628 66.56253 
L 97.071628 46.663072 
" style="fill:none;stroke:#000000;stroke-width:1.5;"/>
    <path clip-path="url(#p0292dab693)" d="M 125.328548 72.573184 
L 125.328548 52.65764 
" style="fill:none;stroke:#000000;stroke-width:1.5;"/>
    <path clip-path="url(#p0292dab693)" d="M 153.585467 92.510975 
L 153.585467 74.087236 
" style="fill:none;stroke:#000000;stroke-width:1.5;"/>
    <path clip-path="url(#p0292dab693)" d="M 181.842387 115.823501 
L 181.842387 100.34726 
" style="fill:none;stroke:#000000;stroke-width:1.5;"/>
    <path clip-path="url(#p0292dab693)" d="M 210.099306 140.90968 
L 210.099306 127.736726 
" style="fill:none;stroke:#000000;stroke-width:1.5;"/>
    <path clip-path="url(#p0292dab693)" d="M 238.236998 148.789575 
L 238.236998 136.567782 
" style="fill:none;stroke:#000000;stroke-width:1.5;"/>
    <path clip-path="url(#p0292dab693)" d="M 266.493917 160.284834 
L 266.493917 149.692596 
" style="fill:none;stroke:#000000;stroke-width:1.5;"/>
    <path clip-path="url(#p0292dab693)" d="M 294.750836 178.668628 
L 294.750836 171.065644 
" style="fill:none;stroke:#000000;stroke-width:1.5;"/>
    <path clip-path="url(#p0292dab693)" d="M 323.007756 194.16742 
L 323.007756 191.413252 
" style="fill:none;stroke:#000000;stroke-width:1.5;"/>
   </g>
   <g id="line2d_13">
    <path clip-path="url(#p0292dab693)" d="M 62.257196 30.859312 
L 65.027128 33.085238 
L 67.79706 35.28717 
L 70.566992 37.465816 
L 73.336924 39.621873 
L 76.106856 41.756027 
L 78.876788 43.868954 
L 81.64672 45.961316 
L 84.416652 48.033767 
L 87.186584 50.08695 
L 89.956516 52.121496 
L 92.726448 54.138026 
L 95.49638 56.137151 
L 98.266312 58.119471 
L 101.036244 60.085574 
L 103.806176 62.03604 
L 106.576108 63.971437 
L 109.34604 65.892324 
L 112.115972 67.799247 
L 114.885904 69.692742 
L 117.655836 71.573338 
L 120.425768 73.441548 
L 123.1957 75.297878 
L 125.965632 77.142822 
L 128.735564 78.976864 
L 131.505496 80.800475 
L 134.275428 82.614118 
L 137.04536 84.418242 
L 139.815292 86.213286 
L 142.585224 87.999678 
L 145.355156 89.777833 
L 148.125088 91.548155 
L 150.89502 93.311037 
L 153.664952 95.066858 
L 156.434884 96.815985 
L 159.204816 98.558773 
L 161.974748 100.295563 
L 164.74468 102.026683 
L 167.514612 103.752448 
L 170.284544 105.473158 
L 173.054476 107.189099 
L 175.824408 108.900542 
L 178.59434 110.607743 
L 181.364272 112.310942 
L 184.134204 114.010364 
L 186.904136 115.706216 
L 189.674068 117.398687 
L 192.444 119.08795 
L 195.213932 120.774159 
L 197.983864 122.457447 
L 200.753796 124.13793 
L 203.523728 125.8157 
L 206.29366 127.49083 
L 209.063592 129.163369 
L 211.833524 130.833343 
L 214.603456 132.500753 
L 217.373388 134.165575 
L 220.14332 135.827759 
L 222.913252 137.487225 
L 225.683184 139.143865 
L 228.453116 140.797539 
L 231.223048 142.448075 
L 233.99298 144.095267 
L 236.762912 145.738872 
L 239.532844 147.378609 
L 242.302776 149.014158 
L 245.072708 150.645155 
L 247.84264 152.27119 
L 250.612572 153.891806 
L 253.382504 155.506493 
L 256.152436 157.114689 
L 258.922368 158.71577 
L 261.6923 160.309051 
L 264.462232 161.893779 
L 267.232164 163.469128 
L 270.002096 165.034192 
L 272.772028 166.587982 
L 275.54196 168.129413 
L 278.311892 169.657299 
L 281.081824 171.170345 
L 283.851756 172.667129 
L 286.621688 174.146094 
L 289.39162 175.605533 
L 292.161552 177.043565 
L 294.931484 178.458119 
L 297.701416 179.846903 
L 300.471348 181.207371 
L 303.24128 182.536686 
L 306.011212 183.831665 
L 308.781144 185.088711 
L 311.551076 186.303727 
L 314.321008 187.471996 
L 317.09094 188.588012 
L 319.860872 189.645238 
L 322.630804 190.635727 
L 325.400736 191.549516 
L 328.170668 192.373533 
L 330.9406 193.089362 
L 333.710532 193.667604 
L 336.480464 194.044336 
" style="fill:none;stroke:#1f77b4;stroke-linecap:square;stroke-width:1.5;"/>
   </g>
   <g id="line2d_14">
    <path clip-path="url(#p0292dab693)" d="M 62.257196 66.784843 
L 65.027128 67.975254 
L 67.79706 69.1536 
L 70.566992 70.320286 
L 73.336924 71.475713 
L 76.106856 72.620279 
L 78.876788 73.754379 
L 81.64672 74.878406 
L 84.416652 75.992751 
L 87.186584 77.097801 
L 89.956516 78.193941 
L 92.726448 79.281555 
L 95.49638 80.361022 
L 98.266312 81.432721 
L 101.036244 82.497028 
L 103.806176 83.554316 
L 106.576108 84.604956 
L 109.34604 85.649319 
L 112.115972 86.687771 
L 114.885904 87.720678 
L 117.655836 88.748403 
L 120.425768 89.771308 
L 123.1957 90.789752 
L 125.965632 91.804093 
L 128.735564 92.814688 
L 131.505496 93.821891 
L 134.275428 94.826053 
L 137.04536 95.827527 
L 139.815292 96.826661 
L 142.585224 97.823802 
L 145.355156 98.819298 
L 148.125088 99.813492 
L 150.89502 100.806728 
L 153.664952 101.799347 
L 156.434884 102.791688 
L 159.204816 103.784091 
L 161.974748 104.776892 
L 164.74468 105.770427 
L 167.514612 106.765031 
L 170.284544 107.761036 
L 173.054476 108.758774 
L 175.824408 109.758575 
L 178.59434 110.760769 
L 181.364272 111.765684 
L 184.134204 112.773646 
L 186.904136 113.784981 
L 189.674068 114.800013 
L 192.444 115.819067 
L 195.213932 116.842465 
L 197.983864 117.870529 
L 200.753796 118.90358 
L 203.523728 119.94194 
L 206.29366 120.985929 
L 209.063592 122.035867 
L 211.833524 123.092075 
L 214.603456 124.154872 
L 217.373388 125.22458 
L 220.14332 126.301521 
L 222.913252 127.386017 
L 225.683184 128.478394 
L 228.453116 129.578979 
L 231.223048 130.688101 
L 233.99298 131.806094 
L 236.762912 132.933295 
L 239.532844 134.070048 
L 242.302776 135.216702 
L 245.072708 136.373614 
L 247.84264 137.541151 
L 250.612572 138.719692 
L 253.382504 139.909628 
L 256.152436 141.111367 
L 258.922368 142.325336 
L 261.6923 143.551985 
L 264.462232 144.791792 
L 267.232164 146.045267 
L 270.002096 147.31296 
L 272.772028 148.595469 
L 275.54196 149.893446 
L 278.311892 151.207616 
L 281.081824 152.538784 
L 283.851756 153.887859 
L 286.621688 155.255873 
L 289.39162 156.644015 
L 292.161552 158.053663 
L 294.931484 159.486439 
L 297.701416 160.944271 
L 300.471348 162.42948 
L 303.24128 163.944899 
L 306.011212 165.49404 
L 308.781144 167.08133 
L 311.551076 168.712461 
L 314.321008 170.394914 
L 317.09094 172.138805 
L 319.860872 173.958278 
L 322.630804 175.873992 
L 325.400736 177.917945 
L 328.170668 180.143974 
L 330.9406 182.655112 
L 333.710532 185.700135 
L 336.480464 190.425239 
" style="fill:none;stroke:#ff7f0e;stroke-linecap:square;stroke-width:1.5;"/>
   </g>
   <g id="line2d_15">
    <defs>
     <path d="M 0 1.5 
C 0.397805 1.5 0.77937 1.341951 1.06066 1.06066 
C 1.341951 0.77937 1.5 0.397805 1.5 0 
C 1.5 -0.397805 1.341951 -0.77937 1.06066 -1.06066 
C 0.77937 -1.341951 0.397805 -1.5 0 -1.5 
C -0.397805 -1.5 -0.77937 -1.341951 -1.06066 -1.06066 
C -1.341951 -0.77937 -1.5 -0.397805 -1.5 0 
C -1.5 0.397805 -1.341951 0.77937 -1.06066 1.06066 
C -0.77937 1.341951 -0.397805 1.5 0 1.5 
z
" id="m3c0d20b9df" style="stroke:#000000;"/>
    </defs>
    <g clip-path="url(#p0292dab693)">
     <use style="stroke:#000000;" x="71.437714" xlink:href="#m3c0d20b9df" y="39.155837"/>
     <use style="stroke:#000000;" x="97.071628" xlink:href="#m3c0d20b9df" y="56.612801"/>
     <use style="stroke:#000000;" x="125.328548" xlink:href="#m3c0d20b9df" y="62.615412"/>
     <use style="stroke:#000000;" x="153.585467" xlink:href="#m3c0d20b9df" y="83.299106"/>
     <use style="stroke:#000000;" x="181.842387" xlink:href="#m3c0d20b9df" y="108.08538"/>
     <use style="stroke:#000000;" x="210.099306" xlink:href="#m3c0d20b9df" y="134.323203"/>
     <use style="stroke:#000000;" x="238.236998" xlink:href="#m3c0d20b9df" y="142.678679"/>
     <use style="stroke:#000000;" x="266.493917" xlink:href="#m3c0d20b9df" y="154.988715"/>
     <use style="stroke:#000000;" x="294.750836" xlink:href="#m3c0d20b9df" y="174.867136"/>
     <use style="stroke:#000000;" x="323.007756" xlink:href="#m3c0d20b9df" y="192.790336"/>
    </g>
   </g>
   <g id="patch_3">
    <path d="M 59.872646 202.903963 
L 59.872646 10.7 
" style="fill:none;stroke:#000000;stroke-linecap:square;stroke-linejoin:miter;stroke-width:0.8;"/>
   </g>
   <g id="patch_4">
    <path d="M 346.018665 202.903963 
L 346.018665 10.7 
" style="fill:none;stroke:#000000;stroke-linecap:square;stroke-linejoin:miter;stroke-width:0.8;"/>
   </g>
   <g id="patch_5">
    <path d="M 59.872646 202.903963 
L 346.018665 202.903963 
" style="fill:none;stroke:#000000;stroke-linecap:square;stroke-linejoin:miter;stroke-width:0.8;"/>
   </g>
   <g id="patch_6">
    <path d="M 59.872646 10.7 
L 346.018665 10.7 
" style="fill:none;stroke:#000000;stroke-linecap:square;stroke-linejoin:miter;stroke-width:0.8;"/>
   </g>
   <g id="legend_1">
    <g id="patch_7">
     <path d="M 270.985059 60.878334 
L 339.018665 60.878334 
Q 341.018665 60.878334 341.018665 58.878334 
L 341.018665 17.7 
Q 341.018665 15.7 339.018665 15.7 
L 270.985059 15.7 
Q 268.985059 15.7 268.985059 17.7 
L 268.985059 58.878334 
Q 268.985059 60.878334 270.985059 60.878334 
z
" style="fill:#ffffff;opacity:0.8;stroke:#cccccc;stroke-linejoin:miter;"/>
    </g>
    <g id="line2d_16">
     <path d="M 272.985059 23.2 
L 292.985059 23.2 
" style="fill:none;stroke:#1f77b4;stroke-linecap:square;stroke-width:1.5;"/>
    </g>
    <g id="line2d_17"/>
    <g id="text_15">
     <!-- SM -->
     <defs>
      <path d="M 43.796875 67.03125 
C 43.796875 68.8125 43.703125 68.921875 43.09375 68.921875 
C 42.5 68.921875 42.296875 68.515625 41.90625 67.625 
L 38.90625 61.046875 
C 35.09375 66.515625 29.296875 69 23 69 
C 12.796875 69 4.59375 60.953125 4.59375 50.828125 
C 4.59375 47.75 5.296875 43.375 8.703125 39.21875 
C 12.40625 34.65625 15.90625 33.859375 23.90625 31.765625 
C 26.90625 30.96875 31.90625 29.671875 32.90625 29.28125 
C 38.59375 26.90625 41.59375 20.953125 41.59375 15.390625 
C 41.59375 8.234375 36.5 0.59375 27.796875 0.59375 
C 17.09375 0.59375 7.09375 6.546875 6.40625 20.484375 
C 6.296875 22.078125 6.203125 22.171875 5.5 22.171875 
C 4.703125 22.171875 4.59375 22.078125 4.59375 20.078125 
L 4.59375 -0.015625 
C 4.59375 -1.796875 4.703125 -1.90625 5.296875 -1.90625 
C 6 -1.90625 6.203125 -1.40625 7.59375 1.6875 
C 7.703125 1.984375 7.703125 2.1875 9.59375 5.953125 
C 14.59375 -0.609375 23 -2 27.796875 -2 
C 38.703125 -2 46.40625 7.046875 46.40625 17.5625 
C 46.40625 22.71875 44.5 26.6875 43.40625 28.484375 
C 39.203125 34.84375 34.703125 36.03125 29.90625 37.21875 
C 29.203125 37.53125 29 37.53125 23.40625 38.90625 
C 18 40.296875 15.703125 41 13.203125 43.6875 
C 10.40625 46.75 9.40625 49.9375 9.40625 53.109375 
C 9.40625 59.5625 14.59375 66.609375 23.09375 66.609375 
C 33.703125 66.609375 40.296875 59.15625 41.796875 46.765625 
C 42.09375 44.96875 42.203125 44.875 42.90625 44.875 
C 43.796875 44.875 43.796875 45.171875 43.796875 46.859375 
z
" id="CMR17-83"/>
      <path d="M 20.90625 66 
C 20.296875 67.5 20.203125 67.5 18.09375 67.5 
L 5.296875 67.5 
L 5.296875 65 
C 12.203125 65 13.296875 65 13.296875 60.546875 
L 13.296875 9.53125 
C 13.296875 7.046875 13.296875 2.390625 5.296875 2.390625 
L 5.296875 -0.203125 
C 7.59375 0 11.796875 0 14.296875 0 
C 16.796875 0 21 0 23.296875 -0.203125 
L 23.296875 2.390625 
C 15.296875 2.390625 15.296875 7.046875 15.296875 9.53125 
L 15.296875 64.609375 
L 15.40625 64.609375 
L 38.90625 1.390625 
C 39.296875 0.390625 39.5 -0.203125 40.296875 -0.203125 
C 41.09375 -0.203125 41.296875 0.390625 41.703125 1.390625 
L 65.40625 65.09375 
L 65.5 65.09375 
L 65.5 6.84375 
C 65.5 2.390625 64.40625 2.390625 57.5 2.390625 
L 57.5 -0.203125 
C 60.203125 0 65.59375 0 68.5 0 
C 71.40625 0 76.90625 0 79.59375 -0.203125 
L 79.59375 2.390625 
C 72.703125 2.390625 71.59375 2.390625 71.59375 6.84375 
L 71.59375 60.546875 
C 71.59375 65 72.703125 65 79.59375 65 
L 79.59375 67.5 
L 66.90625 67.5 
C 64.796875 67.5 64.703125 67.40625 64.09375 65.90625 
L 42.5 7.84375 
z
" id="CMR17-77"/>
     </defs>
     <g transform="translate(300.985059 26.7)scale(0.1 -0.1)">
      <use transform="scale(0.996264)" xlink:href="#CMR17-83"/>
      <use transform="translate(50.89537 0)scale(0.996264)" xlink:href="#CMR17-77"/>
     </g>
    </g>
    <g id="line2d_18">
     <path d="M 272.985059 37.503977 
L 292.985059 37.503977 
" style="fill:none;stroke:#ff7f0e;stroke-linecap:square;stroke-width:1.5;"/>
    </g>
    <g id="line2d_19"/>
    <g id="text_16">
     <!-- $C_{S_L}=1$ -->
     <defs>
      <path d="M 74.703125 69.109375 
C 74.703125 70 74 70 73.796875 70 
C 73.59375 70 73.203125 70 72.40625 69 
L 65.5 60.65625 
C 62 66.625 56.5 70 49 70 
C 27.40625 70 5 48.25 5 24.921875 
C 5 8.328125 16.703125 -2 31.296875 -2 
C 39.296875 -2 46.296875 1.375 52.09375 6.25 
C 60.796875 13.484375 63.40625 23.140625 63.40625 23.921875 
C 63.40625 24.8125 62.59375 24.8125 62.296875 24.8125 
C 61.40625 24.8125 61.296875 24.21875 61.09375 23.8125 
C 56.5 8.34375 43 0.890625 33 0.890625 
C 22.40625 0.890625 13.203125 7.640625 13.203125 21.734375 
C 13.203125 24.921875 14.203125 42.1875 25.5 55.1875 
C 31 61.546875 40.40625 67.109375 49.90625 67.109375 
C 60.90625 67.109375 65.796875 58.078125 65.796875 47.9375 
C 65.796875 45.359375 65.5 43.1875 65.5 42.78125 
C 65.5 41.890625 66.5 41.890625 66.796875 41.890625 
C 67.90625 41.890625 68 41.984375 68.40625 43.765625 
z
" id="CMMI12-67"/>
      <path d="M 63.5 69.109375 
C 63.5 70 62.796875 70 62.59375 70 
C 62.203125 70 62.09375 69.90625 60.90625 68.40625 
C 60.296875 67.703125 56.203125 62.515625 56.09375 62.421875 
C 52.796875 68.90625 46.203125 70 42 70 
C 29.296875 70 17.796875 58.484375 17.796875 47.265625 
C 17.796875 39.828125 22.296875 35.453125 27.203125 33.765625 
C 28.296875 33.359375 34.203125 31.765625 37.203125 31.078125 
C 42.296875 29.6875 43.59375 29.296875 45.703125 27.109375 
C 46.09375 26.609375 48.09375 24.328125 48.09375 19.65625 
C 48.09375 10.421875 39.5 0.890625 29.5 0.890625 
C 21.296875 0.890625 12.203125 4.375 12.203125 15.484375 
C 12.203125 17.375 12.59375 19.765625 12.90625 20.75 
C 12.90625 21.0625 13 21.53125 13 21.734375 
C 13 22.140625 12.796875 22.640625 12 22.640625 
C 11.09375 22.640625 11 22.4375 10.59375 20.75 
L 5.5 0.375 
C 5.5 0.28125 5.09375 -1 5.09375 -1.109375 
C 5.09375 -2 5.90625 -2 6.09375 -2 
C 6.5 -2 6.59375 -1.90625 7.796875 -0.40625 
L 12.40625 5.5625 
C 14.796875 1.96875 20 -2 29.296875 -2 
C 42.203125 -2 54 10.40625 54 22.8125 
C 54 27 53 30.671875 49.203125 34.328125 
C 47.09375 36.421875 45.296875 36.921875 36.09375 39.3125 
C 29.40625 41.09375 28.5 41.390625 26.703125 42.984375 
C 25 44.65625 23.703125 47.046875 23.703125 50.421875 
C 23.703125 58.765625 32.203125 67.3125 41.703125 67.3125 
C 51.5 67.3125 56.09375 61.34375 56.09375 51.921875 
C 56.09375 49.34375 55.59375 46.65625 55.59375 46.265625 
C 55.59375 45.359375 56.40625 45.359375 56.703125 45.359375 
C 57.59375 45.359375 57.703125 45.65625 58.09375 47.25 
z
" id="CMMI12-83"/>
      <path d="M 36.703125 60.328125 
C 37.59375 64.109375 37.90625 65.109375 46.703125 65.109375 
C 49.40625 65.109375 50.09375 65.109375 50.09375 67 
C 50.09375 68 49 68 48.59375 68 
C 46.59375 68 44.296875 68 42.296875 68 
L 28.90625 68 
C 27 68 24.796875 68 22.90625 68 
C 22.09375 68 21 68 21 66.109375 
C 21 65.109375 21.90625 65.109375 23.40625 65.109375 
C 29.5 65.109375 29.5 64.3125 29.5 63.21875 
C 29.5 63.03125 29.5 62.421875 29.09375 60.921875 
L 15.59375 7.375 
C 14.703125 3.890625 14.5 2.890625 7.5 2.890625 
C 5.59375 2.890625 4.59375 2.890625 4.59375 1.09375 
C 4.59375 0 5.203125 0 7.203125 0 
L 52 0 
C 54.203125 0 54.296875 0.09375 55 1.890625 
L 62.703125 23.09375 
C 62.90625 23.59375 63.09375 24.1875 63.09375 24.484375 
C 63.09375 25.078125 62.59375 25.484375 62.09375 25.484375 
C 62 25.484375 61.5 25.484375 61.296875 25.078125 
C 61.09375 24.984375 61.09375 24.78125 60.296875 22.890625 
C 57.09375 14.140625 52.59375 2.890625 35.703125 2.890625 
L 26.09375 2.890625 
C 24.703125 2.890625 24.5 2.890625 23.90625 3 
C 22.796875 3.09375 22.703125 3.296875 22.703125 4.09375 
C 22.703125 4.796875 22.90625 5.390625 23.09375 6.265625 
z
" id="CMMI12-76"/>
      <path d="M 64.296875 31.515625 
C 65.796875 31.515625 67.296875 31.515625 67.296875 33.203125 
C 67.296875 35 65.59375 35 63.90625 35 
L 8 35 
C 6.296875 35 4.59375 35 4.59375 33.203125 
C 4.59375 31.515625 6.09375 31.515625 7.59375 31.515625 
z
M 63.90625 14 
C 65.59375 14 67.296875 14 67.296875 15.796875 
C 67.296875 17.484375 65.796875 17.484375 64.296875 17.484375 
L 7.59375 17.484375 
C 6.09375 17.484375 4.59375 17.484375 4.59375 15.796875 
C 4.59375 14 6.296875 14 8 14 
z
" id="CMR17-61"/>
     </defs>
     <g transform="translate(300.985059 41.003977)scale(0.1 -0.1)">
      <use transform="translate(0 25.404611)scale(0.996264)" xlink:href="#CMMI12-67"/>
      <use transform="translate(69.792037 10.460696)scale(0.697382)" xlink:href="#CMMI12-83"/>
      <use transform="translate(111.787994 0)scale(0.498132)" xlink:href="#CMMI12-76"/>
      <use transform="translate(173.643697 25.404611)scale(0.996264)" xlink:href="#CMR17-61"/>
      <use transform="translate(273.032494 25.404611)scale(0.996264)" xlink:href="#CMR17-49"/>
     </g>
    </g>
    <g id="LineCollection_3">
     <path d="M 277.985059 51.441156 
L 287.985059 51.441156 
" style="fill:none;stroke:#000000;stroke-width:1.5;"/>
    </g>
    <g id="LineCollection_4">
     <path d="M 282.985059 56.441156 
L 282.985059 46.441156 
" style="fill:none;stroke:#000000;stroke-width:1.5;"/>
    </g>
    <g id="line2d_20"/>
    <g id="line2d_21">
     <g>
      <use style="stroke:#000000;" x="282.985059" xlink:href="#m3c0d20b9df" y="51.441156"/>
     </g>
    </g>
    <g id="text_17">
     <!-- Belle -->
     <defs>
      <path d="M 15.296875 68.6875 
L 3.40625 67.59375 
L 3.40625 65 
C 9.296875 65 10.203125 64.40625 10.203125 59.640625 
L 10.203125 6.65625 
C 10.203125 2.875 9.796875 2.390625 3.40625 2.390625 
L 3.40625 -0.203125 
C 5.796875 0 10.203125 0 12.703125 0 
C 15.296875 0 19.703125 0 22.09375 -0.203125 
L 22.09375 2.390625 
C 15.703125 2.390625 15.296875 2.78125 15.296875 6.65625 
z
" id="CMR17-108"/>
     </defs>
     <g transform="translate(300.985059 54.941156)scale(0.1 -0.1)">
      <use transform="scale(0.996264)" xlink:href="#CMR17-66"/>
      <use transform="translate(65.188754 0)scale(0.996264)" xlink:href="#CMR17-101"/>
      <use transform="translate(105.674415 0)scale(0.996264)" xlink:href="#CMR17-108"/>
      <use transform="translate(130.545473 0)scale(0.996264)" xlink:href="#CMR17-108"/>
      <use transform="translate(155.416532 0)scale(0.996264)" xlink:href="#CMR17-101"/>
     </g>
    </g>
   </g>
  </g>
  <g id="axes_2">
   <g id="patch_8">
    <path d="M 414.472646 202.903963 
L 700.618665 202.903963 
L 700.618665 10.7 
L 414.472646 10.7 
z
" style="fill:#ffffff;"/>
   </g>
   <g id="PolyCollection_3">
    <defs>
     <path d="M 416.857196 -223.334327 
L 416.857196 -201.04965 
L 419.627128 -203.523974 
L 422.39706 -202.231118 
L 425.166992 -200.467235 
L 427.936924 -198.589511 
L 430.706856 -196.681265 
L 433.476788 -194.769792 
L 436.24672 -192.865881 
L 439.016652 -190.974267 
L 441.786584 -189.097108 
L 444.556516 -187.23534 
L 447.326448 -185.389271 
L 450.09638 -183.55887 
L 452.866312 -181.743908 
L 455.636244 -179.944043 
L 458.406176 -178.158861 
L 461.176108 -176.387909 
L 463.94604 -174.631554 
L 466.715972 -172.894372 
L 469.485904 -171.17671 
L 472.255836 -169.478068 
L 475.025768 -167.797948 
L 477.7957 -166.135858 
L 480.565632 -164.491309 
L 483.335564 -162.863822 
L 486.105496 -161.252924 
L 488.875428 -159.658152 
L 491.64536 -158.079054 
L 494.415292 -156.510963 
L 497.185224 -154.928112 
L 499.955156 -153.325856 
L 502.725088 -151.703784 
L 505.49502 -150.061499 
L 508.264952 -148.398613 
L 511.034884 -146.714752 
L 513.804816 -145.009555 
L 516.574748 -143.282672 
L 519.34468 -141.533769 
L 522.114612 -139.762523 
L 524.884544 -137.974958 
L 527.654476 -136.20876 
L 530.424408 -134.469981 
L 533.19434 -132.758359 
L 535.964272 -131.073647 
L 538.734204 -129.415616 
L 541.504136 -127.784053 
L 544.274068 -126.178763 
L 547.044 -124.599569 
L 549.813932 -123.046312 
L 552.583864 -121.518855 
L 555.353796 -120.011506 
L 558.123728 -118.490728 
L 560.89366 -116.950874 
L 563.663592 -115.391891 
L 566.433524 -113.813753 
L 569.203456 -112.216455 
L 571.973388 -110.600022 
L 574.74332 -108.964505 
L 577.513252 -107.309982 
L 580.283184 -105.636565 
L 583.053116 -103.944393 
L 585.823048 -102.237606 
L 588.59298 -100.540204 
L 591.362912 -98.856397 
L 594.132844 -97.18647 
L 596.902776 -95.530751 
L 599.672708 -93.88961 
L 602.44264 -92.263463 
L 605.212572 -90.652777 
L 607.982504 -89.05807 
L 610.752436 -87.479916 
L 613.522368 -85.91895 
L 616.2923 -84.373852 
L 619.062232 -82.833286 
L 621.832164 -81.296074 
L 624.602096 -79.763141 
L 627.372028 -78.235494 
L 630.14196 -76.71424 
L 632.911892 -75.200587 
L 635.681824 -73.695855 
L 638.451756 -72.201494 
L 641.221688 -70.719088 
L 643.99162 -69.25038 
L 646.761552 -67.798043 
L 649.531484 -66.36875 
L 652.301416 -64.965595 
L 655.071348 -63.591167 
L 657.84128 -62.248354 
L 660.611212 -60.940395 
L 663.381144 -59.670943 
L 666.151076 -58.444161 
L 668.921008 -57.264837 
L 671.69094 -56.13855 
L 674.460872 -55.071921 
L 677.230804 -54.072977 
L 680.000736 -53.151758 
L 682.770668 -52.321384 
L 685.5406 -51.600217 
L 688.310532 -51.0172 
L 691.080464 -50.63258 
L 691.080464 -50.63879 
L 691.080464 -50.63879 
L 688.310532 -51.066051 
L 685.5406 -51.691911 
L 682.770668 -52.456121 
L 680.000736 -53.329738 
L 677.230804 -54.294402 
L 674.460872 -55.336991 
L 671.69094 -56.447466 
L 668.921008 -57.6178 
L 666.151076 -58.841372 
L 663.381144 -60.112602 
L 660.611212 -61.426703 
L 657.84128 -62.779513 
L 655.071348 -64.167376 
L 652.301416 -65.587055 
L 649.531484 -67.035663 
L 646.761552 -68.510609 
L 643.99162 -70.01032 
L 641.221688 -71.537247 
L 638.451756 -73.090236 
L 635.681824 -74.667546 
L 632.911892 -76.267591 
L 630.14196 -77.888923 
L 627.372028 -79.53022 
L 624.602096 -81.190274 
L 621.832164 -82.86798 
L 619.062232 -84.562329 
L 616.2923 -86.272398 
L 613.522368 -87.995327 
L 610.752436 -89.718244 
L 607.982504 -91.438431 
L 605.212572 -93.155255 
L 602.44264 -94.868141 
L 599.672708 -96.576571 
L 596.902776 -98.280078 
L 594.132844 -99.978245 
L 591.362912 -101.670704 
L 588.59298 -103.357126 
L 585.823048 -105.037226 
L 583.053116 -106.714723 
L 580.283184 -108.413197 
L 577.513252 -110.136438 
L 574.74332 -111.884304 
L 571.973388 -113.656686 
L 569.203456 -115.453504 
L 566.433524 -117.274707 
L 563.663592 -119.120273 
L 560.89366 -120.990203 
L 558.123728 -122.884526 
L 555.353796 -124.803293 
L 552.583864 -126.741005 
L 549.813932 -128.66432 
L 547.044 -130.567782 
L 544.274068 -132.451529 
L 541.504136 -134.315719 
L 538.734204 -136.160529 
L 535.964272 -137.986154 
L 533.19434 -139.792808 
L 530.424408 -141.580719 
L 527.654476 -143.350135 
L 524.884544 -145.101317 
L 522.114612 -146.840873 
L 519.34468 -148.607075 
L 516.574748 -150.406561 
L 513.804816 -152.239651 
L 511.034884 -154.10668 
L 508.264952 -156.007999 
L 505.49502 -157.943967 
L 502.725088 -159.91496 
L 499.955156 -161.921365 
L 497.185224 -163.963579 
L 494.415292 -166.042014 
L 491.64536 -168.152869 
L 488.875428 -170.271241 
L 486.105496 -172.393351 
L 483.335564 -174.519653 
L 480.565632 -176.650609 
L 477.7957 -178.786691 
L 475.025768 -180.928381 
L 472.255836 -183.076164 
L 469.485904 -185.230535 
L 466.715972 -187.391991 
L 463.94604 -189.561032 
L 461.176108 -191.739 
L 458.406176 -193.931455 
L 455.636244 -196.13972 
L 452.866312 -198.364248 
L 450.09638 -200.605451 
L 447.326448 -202.863673 
L 444.556516 -205.139142 
L 441.786584 -207.43189 
L 439.016652 -209.741609 
L 436.24672 -212.067362 
L 433.476788 -214.406991 
L 430.706856 -216.755762 
L 427.936924 -219.102884 
L 425.166992 -221.421065 
L 422.39706 -223.626985 
L 419.627128 -225.363456 
L 416.857196 -223.334327 
z
" id="m33372dbaa5" style="stroke:#1f77b4;stroke-opacity:0.3;"/>
    </defs>
    <g clip-path="url(#padcdd8ea3f)">
     <use style="fill:#1f77b4;fill-opacity:0.3;stroke:#1f77b4;stroke-opacity:0.3;" x="0" xlink:href="#m33372dbaa5" y="244.8"/>
    </g>
   </g>
   <g id="PolyCollection_4">
    <defs>
     <path d="M 416.857196 -190.714393 
L 416.857196 -172.541513 
L 419.627128 -175.547023 
L 422.39706 -175.143924 
L 425.166992 -174.269427 
L 427.936924 -173.271274 
L 430.706856 -172.237002 
L 433.476788 -171.197489 
L 436.24672 -170.165953 
L 439.016652 -169.14878 
L 441.786584 -168.149295 
L 444.556516 -167.169303 
L 447.326448 -166.209781 
L 450.09638 -165.271235 
L 452.866312 -164.353881 
L 455.636244 -163.457756 
L 458.406176 -162.582775 
L 461.176108 -161.728775 
L 463.94604 -160.891232 
L 466.715972 -160.044053 
L 469.485904 -159.182645 
L 472.255836 -158.306704 
L 475.025768 -157.415907 
L 477.7957 -156.509924 
L 480.565632 -155.588413 
L 483.335564 -154.651028 
L 486.105496 -153.697419 
L 488.875428 -152.727231 
L 491.64536 -151.740107 
L 494.415292 -150.739198 
L 497.185224 -149.745211 
L 499.955156 -148.761293 
L 502.725088 -147.787085 
L 505.49502 -146.822224 
L 508.264952 -145.866348 
L 511.034884 -144.919095 
L 513.804816 -143.980104 
L 516.574748 -143.049012 
L 519.34468 -142.125459 
L 522.114612 -141.209083 
L 524.884544 -140.297732 
L 527.654476 -139.380296 
L 530.424408 -138.454623 
L 533.19434 -137.520355 
L 535.964272 -136.57713 
L 538.734204 -135.62459 
L 541.504136 -134.662376 
L 544.274068 -133.690129 
L 547.044 -132.70749 
L 549.813932 -131.714098 
L 552.583864 -130.709596 
L 555.353796 -129.693885 
L 558.123728 -128.66819 
L 560.89366 -127.632412 
L 563.663592 -126.586188 
L 566.433524 -125.529154 
L 569.203456 -124.460944 
L 571.973388 -123.381189 
L 574.74332 -122.289519 
L 577.513252 -121.185559 
L 580.283184 -120.068931 
L 583.053116 -118.939254 
L 585.823048 -117.796806 
L 588.59298 -116.645207 
L 591.362912 -115.484723 
L 594.132844 -114.314944 
L 596.902776 -113.13545 
L 599.672708 -111.94581 
L 602.44264 -110.745579 
L 605.212572 -109.534296 
L 607.982504 -108.311479 
L 610.752436 -107.076627 
L 613.522368 -105.829213 
L 616.2923 -104.568434 
L 619.062232 -103.292248 
L 621.832164 -101.999775 
L 624.602096 -100.690329 
L 627.372028 -99.363162 
L 630.14196 -98.017456 
L 632.911892 -96.652308 
L 635.681824 -95.26671 
L 638.451756 -93.859532 
L 641.221688 -92.42949 
L 643.99162 -90.975114 
L 646.761552 -89.495067 
L 649.531484 -87.989553 
L 652.301416 -86.456581 
L 655.071348 -84.893329 
L 657.84128 -83.296367 
L 660.611212 -81.661467 
L 663.381144 -79.983327 
L 666.151076 -78.255166 
L 668.921008 -76.46811 
L 671.69094 -74.610222 
L 674.460872 -72.664889 
L 677.230804 -70.607947 
L 680.000736 -68.40213 
L 682.770668 -65.984978 
L 685.5406 -63.237392 
L 688.310532 -59.872802 
L 691.080464 -54.575547 
L 691.080464 -54.949908 
L 691.080464 -54.949908 
L 688.310532 -60.417862 
L 685.5406 -63.948104 
L 682.770668 -66.856293 
L 680.000736 -69.429001 
L 677.230804 -71.785326 
L 674.460872 -73.987728 
L 671.69094 -76.073473 
L 668.921008 -78.066725 
L 666.151076 -79.984097 
L 663.381144 -81.837527 
L 660.611212 -83.635887 
L 657.84128 -85.385959 
L 655.071348 -87.093045 
L 652.301416 -88.761374 
L 649.531484 -90.394375 
L 646.761552 -91.99487 
L 643.99162 -93.56558 
L 641.221688 -95.110691 
L 638.451756 -96.632268 
L 635.681824 -98.131783 
L 632.911892 -99.610518 
L 630.14196 -101.069606 
L 627.372028 -102.510053 
L 624.602096 -103.932762 
L 621.832164 -105.338551 
L 619.062232 -106.728168 
L 616.2923 -108.1023 
L 613.522368 -109.461342 
L 610.752436 -110.804438 
L 607.982504 -112.131906 
L 605.212572 -113.444273 
L 602.44264 -114.742042 
L 599.672708 -116.025693 
L 596.902776 -117.295687 
L 594.132844 -118.552469 
L 591.362912 -119.796472 
L 588.59298 -121.028114 
L 585.823048 -122.247805 
L 583.053116 -123.456616 
L 580.283184 -124.658951 
L 577.513252 -125.855867 
L 574.74332 -127.047745 
L 571.973388 -128.234963 
L 569.203456 -129.417897 
L 566.433524 -130.596917 
L 563.663592 -131.77239 
L 560.89366 -132.944684 
L 558.123728 -134.114163 
L 555.353796 -135.281189 
L 552.583864 -136.446389 
L 549.813932 -137.611705 
L 547.044 -138.777764 
L 544.274068 -139.944924 
L 541.504136 -141.113544 
L 538.734204 -142.283983 
L 535.964272 -143.456602 
L 533.19434 -144.631758 
L 530.424408 -145.809812 
L 527.654476 -146.991122 
L 524.884544 -148.176048 
L 522.114612 -149.363159 
L 519.34468 -150.542066 
L 516.574748 -151.711336 
L 513.804816 -152.871333 
L 511.034884 -154.022415 
L 508.264952 -155.164946 
L 505.49502 -156.299288 
L 502.725088 -157.425801 
L 499.955156 -158.544848 
L 497.185224 -159.656792 
L 494.415292 -160.761993 
L 491.64536 -161.864323 
L 488.875428 -162.985207 
L 486.105496 -164.128515 
L 483.335564 -165.294603 
L 480.565632 -166.483826 
L 477.7957 -167.696536 
L 475.025768 -168.933078 
L 472.255836 -170.193792 
L 469.485904 -171.479011 
L 466.715972 -172.789056 
L 463.94604 -174.124233 
L 461.176108 -175.480521 
L 458.406176 -176.832344 
L 455.636244 -178.175614 
L 452.866312 -179.510495 
L 450.09638 -180.837071 
L 447.326448 -182.155306 
L 444.556516 -183.464983 
L 441.786584 -184.765597 
L 439.016652 -186.056168 
L 436.24672 -187.334896 
L 433.476788 -188.598453 
L 430.706856 -189.840452 
L 427.936924 -191.047677 
L 425.166992 -192.18925 
L 422.39706 -193.177633 
L 419.627128 -193.665084 
L 416.857196 -190.714393 
z
" id="mc98379a9c2" style="stroke:#ff7f0e;stroke-opacity:0.3;"/>
    </defs>
    <g clip-path="url(#padcdd8ea3f)">
     <use style="fill:#ff7f0e;fill-opacity:0.3;stroke:#ff7f0e;stroke-opacity:0.3;" x="0" xlink:href="#mc98379a9c2" y="244.8"/>
    </g>
   </g>
   <g id="matplotlib.axis_3">
    <g id="xtick_8">
     <g id="line2d_22">
      <g>
       <use style="stroke:#000000;stroke-width:0.8;" x="414.472646" xlink:href="#mf764dd6068" y="202.903963"/>
      </g>
     </g>
     <g id="text_18">
      <!-- $0$ -->
      <g transform="translate(411.981978 216.822462)scale(0.1 -0.1)">
       <use transform="scale(0.996264)" xlink:href="#CMR17-48"/>
      </g>
     </g>
    </g>
    <g id="xtick_9">
     <g id="line2d_23">
      <g>
       <use style="stroke:#000000;stroke-width:0.8;" x="462.163649" xlink:href="#mf764dd6068" y="202.903963"/>
      </g>
     </g>
     <g id="text_19">
      <!-- $2$ -->
      <g transform="translate(459.672982 216.822462)scale(0.1 -0.1)">
       <use transform="scale(0.996264)" xlink:href="#CMR17-50"/>
      </g>
     </g>
    </g>
    <g id="xtick_10">
     <g id="line2d_24">
      <g>
       <use style="stroke:#000000;stroke-width:0.8;" x="509.854652" xlink:href="#mf764dd6068" y="202.903963"/>
      </g>
     </g>
     <g id="text_20">
      <!-- $4$ -->
      <g transform="translate(507.363985 216.822462)scale(0.1 -0.1)">
       <use transform="scale(0.996264)" xlink:href="#CMR17-52"/>
      </g>
     </g>
    </g>
    <g id="xtick_11">
     <g id="line2d_25">
      <g>
       <use style="stroke:#000000;stroke-width:0.8;" x="557.545655" xlink:href="#mf764dd6068" y="202.903963"/>
      </g>
     </g>
     <g id="text_21">
      <!-- $6$ -->
      <g transform="translate(555.054988 216.822462)scale(0.1 -0.1)">
       <use transform="scale(0.996264)" xlink:href="#CMR17-54"/>
      </g>
     </g>
    </g>
    <g id="xtick_12">
     <g id="line2d_26">
      <g>
       <use style="stroke:#000000;stroke-width:0.8;" x="605.236659" xlink:href="#mf764dd6068" y="202.903963"/>
      </g>
     </g>
     <g id="text_22">
      <!-- $8$ -->
      <g transform="translate(602.745991 216.822462)scale(0.1 -0.1)">
       <use transform="scale(0.996264)" xlink:href="#CMR17-56"/>
      </g>
     </g>
    </g>
    <g id="xtick_13">
     <g id="line2d_27">
      <g>
       <use style="stroke:#000000;stroke-width:0.8;" x="652.927662" xlink:href="#mf764dd6068" y="202.903963"/>
      </g>
     </g>
     <g id="text_23">
      <!-- $10$ -->
      <g transform="translate(647.946326 216.822462)scale(0.1 -0.1)">
       <use transform="scale(0.996264)" xlink:href="#CMR17-49"/>
       <use transform="translate(45.690477 0)scale(0.996264)" xlink:href="#CMR17-48"/>
      </g>
     </g>
    </g>
    <g id="xtick_14">
     <g id="line2d_28">
      <g>
       <use style="stroke:#000000;stroke-width:0.8;" x="700.618665" xlink:href="#mf764dd6068" y="202.903963"/>
      </g>
     </g>
     <g id="text_24">
      <!-- $12$ -->
      <g transform="translate(695.637329 216.822462)scale(0.1 -0.1)">
       <use transform="scale(0.996264)" xlink:href="#CMR17-49"/>
       <use transform="translate(45.690477 0)scale(0.996264)" xlink:href="#CMR17-50"/>
      </g>
     </g>
    </g>
    <g id="text_25">
     <!-- $q^2$ [GeV$^2$] -->
     <g transform="translate(529.170989 234.113076)scale(0.14 -0.14)">
      <use transform="scale(0.996264)" xlink:href="#CMMI12-113"/>
      <use transform="translate(46.826324 36.153639)scale(0.697382)" xlink:href="#CMR17-50"/>
      <use transform="translate(109.383604 0)scale(0.996264)" xlink:href="#CMR17-91"/>
      <use transform="translate(134.254663 0)scale(0.996264)" xlink:href="#CMR17-71"/>
      <use transform="translate(206.610009 0)scale(0.996264)" xlink:href="#CMR17-101"/>
      <use transform="translate(247.095669 0)scale(0.996264)" xlink:href="#CMR17-86"/>
      <use transform="translate(316.168099 36.153639)scale(0.697382)" xlink:href="#CMR17-50"/>
      <use transform="translate(348.649413 0)scale(0.996264)" xlink:href="#CMR17-93"/>
     </g>
    </g>
   </g>
   <g id="matplotlib.axis_4">
    <g id="ytick_6">
     <g id="line2d_29">
      <g>
       <use style="stroke:#000000;stroke-width:0.8;" x="414.472646" xlink:href="#m73e134e23a" y="194.21756"/>
      </g>
     </g>
     <g id="text_26">
      <!-- $0.000$ -->
      <g transform="translate(384.779897 197.676809)scale(0.1 -0.1)">
       <use transform="scale(0.996264)" xlink:href="#CMR17-48"/>
       <use transform="translate(45.690477 0)scale(0.996264)" xlink:href="#CMMI12-58"/>
       <use transform="translate(72.787654 0)scale(0.996264)" xlink:href="#CMR17-48"/>
       <use transform="translate(118.478131 0)scale(0.996264)" xlink:href="#CMR17-48"/>
       <use transform="translate(164.168608 0)scale(0.996264)" xlink:href="#CMR17-48"/>
      </g>
     </g>
    </g>
    <g id="ytick_7">
     <g id="line2d_30">
      <g>
       <use style="stroke:#000000;stroke-width:0.8;" x="414.472646" xlink:href="#m73e134e23a" y="156.226704"/>
      </g>
     </g>
     <g id="text_27">
      <!-- $0.001$ -->
      <g transform="translate(384.779897 159.685954)scale(0.1 -0.1)">
       <use transform="scale(0.996264)" xlink:href="#CMR17-48"/>
       <use transform="translate(45.690477 0)scale(0.996264)" xlink:href="#CMMI12-58"/>
       <use transform="translate(72.787654 0)scale(0.996264)" xlink:href="#CMR17-48"/>
       <use transform="translate(118.478131 0)scale(0.996264)" xlink:href="#CMR17-48"/>
       <use transform="translate(164.168608 0)scale(0.996264)" xlink:href="#CMR17-49"/>
      </g>
     </g>
    </g>
    <g id="ytick_8">
     <g id="line2d_31">
      <g>
       <use style="stroke:#000000;stroke-width:0.8;" x="414.472646" xlink:href="#m73e134e23a" y="118.235849"/>
      </g>
     </g>
     <g id="text_28">
      <!-- $0.002$ -->
      <g transform="translate(384.779897 121.695098)scale(0.1 -0.1)">
       <use transform="scale(0.996264)" xlink:href="#CMR17-48"/>
       <use transform="translate(45.690477 0)scale(0.996264)" xlink:href="#CMMI12-58"/>
       <use transform="translate(72.787654 0)scale(0.996264)" xlink:href="#CMR17-48"/>
       <use transform="translate(118.478131 0)scale(0.996264)" xlink:href="#CMR17-48"/>
       <use transform="translate(164.168608 0)scale(0.996264)" xlink:href="#CMR17-50"/>
      </g>
     </g>
    </g>
    <g id="ytick_9">
     <g id="line2d_32">
      <g>
       <use style="stroke:#000000;stroke-width:0.8;" x="414.472646" xlink:href="#m73e134e23a" y="80.244994"/>
      </g>
     </g>
     <g id="text_29">
      <!-- $0.003$ -->
      <g transform="translate(384.779897 83.704243)scale(0.1 -0.1)">
       <use transform="scale(0.996264)" xlink:href="#CMR17-48"/>
       <use transform="translate(45.690477 0)scale(0.996264)" xlink:href="#CMMI12-58"/>
       <use transform="translate(72.787654 0)scale(0.996264)" xlink:href="#CMR17-48"/>
       <use transform="translate(118.478131 0)scale(0.996264)" xlink:href="#CMR17-48"/>
       <use transform="translate(164.168608 0)scale(0.996264)" xlink:href="#CMR17-51"/>
      </g>
     </g>
    </g>
    <g id="ytick_10">
     <g id="line2d_33">
      <g>
       <use style="stroke:#000000;stroke-width:0.8;" x="414.472646" xlink:href="#m73e134e23a" y="42.254139"/>
      </g>
     </g>
     <g id="text_30">
      <!-- $0.004$ -->
      <g transform="translate(384.779897 45.713388)scale(0.1 -0.1)">
       <use transform="scale(0.996264)" xlink:href="#CMR17-48"/>
       <use transform="translate(45.690477 0)scale(0.996264)" xlink:href="#CMMI12-58"/>
       <use transform="translate(72.787654 0)scale(0.996264)" xlink:href="#CMR17-48"/>
       <use transform="translate(118.478131 0)scale(0.996264)" xlink:href="#CMR17-48"/>
       <use transform="translate(164.168608 0)scale(0.996264)" xlink:href="#CMR17-52"/>
      </g>
     </g>
    </g>
    <g id="text_31">
     <!-- $\frac{d\text{BR}}{dq^2}(B^0\to D^- \mu^+\nu_\mu)$ -->
     <defs>
      <path d="M 14.40625 2.1875 
C 16.90625 -0.09375 20.59375 -1 24 -1 
C 30.40625 -1 34.796875 3.25 37.09375 6.328125 
C 38.09375 1.078125 42.296875 -1 45.796875 -1 
C 48.796875 -1 51.203125 0.78125 53 4.328125 
C 54.59375 7.703125 56 13.734375 56 14.109375 
C 56 14.609375 55.59375 15 55 15 
C 54.09375 15 54 14.5 53.59375 13.03125 
C 52.09375 7.203125 50.203125 1 46.09375 1 
C 43.203125 1 43 3.578125 43 5.59375 
C 43 7.875 43.90625 11.484375 44.59375 14.46875 
L 47.40625 25.234375 
C 47.796875 27.140625 48.90625 31.609375 49.40625 33.421875 
C 50 35.8125 51.09375 40.109375 51.09375 40.5 
C 51.09375 42 49.90625 43 48.40625 43 
C 47.5 43 45.40625 42.59375 44.59375 39.609375 
L 37.59375 11.875 
C 37.09375 9.875 37.09375 9.671875 35.796875 8.078125 
C 34.59375 6.390625 30.703125 1 24.40625 1 
C 18.796875 1 17 5.09375 17 9.765625 
C 17 12.671875 17.90625 16.15625 18.296875 17.859375 
L 22.796875 35.828125 
C 23.296875 37.71875 24.09375 40.90625 24.09375 41.515625 
C 24.09375 43.109375 22.796875 44 21.5 44 
C 20.59375 44 18.40625 43.703125 17.59375 40.5 
L 3.09375 -17.296875 
C 3 -17.796875 2.796875 -18.390625 2.796875 -19 
C 2.796875 -20.5 4 -21.5 5.5 -21.5 
C 8.40625 -21.5 9 -19.1875 9.703125 -16.40625 
z
" id="CMMI12-22"/>
     </defs>
     <g transform="translate(378.067868 166.618213)rotate(-90)scale(0.14 -0.14)">
      <use transform="translate(0 73.581354)scale(0.697382)" xlink:href="#CMMI12-100"/>
      <use transform="translate(35.482207 73.581354)scale(0.697382)" xlink:href="#CMR17-66"/>
      <use transform="translate(81.114126 73.581354)scale(0.697382)" xlink:href="#CMR17-82"/>
      <use transform="translate(18.481932 0)scale(0.697382)" xlink:href="#CMMI12-100"/>
      <use transform="translate(53.964138 0)scale(0.697382)" xlink:href="#CMMI12-113"/>
      <use transform="translate(86.742404 20.146573)scale(0.498132)" xlink:href="#CMR17-50"/>
      <use transform="translate(129.763205 34.355253)scale(0.996264)" xlink:href="#CMR17-40"/>
      <use transform="translate(165.043973 34.355253)scale(0.996264)" xlink:href="#CMMI12-66"/>
      <use transform="translate(244.179496 70.508892)scale(0.697382)" xlink:href="#CMR17-48"/>
      <use transform="translate(304.334819 34.355253)scale(0.996264)" xlink:href="#CMSY10-33"/>
      <use transform="translate(431.635502 34.355253)scale(0.996264)" xlink:href="#CMMI12-68"/>
      <use transform="translate(515.33945 70.508892)scale(0.697382)" xlink:href="#CMSY10-0"/>
      <use transform="translate(570.078575 34.355253)scale(0.996264)" xlink:href="#CMMI12-22"/>
      <use transform="translate(628.769996 70.508892)scale(0.697382)" xlink:href="#CMR17-43"/>
      <use transform="translate(679.46826 34.355253)scale(0.996264)" xlink:href="#CMMI12-23"/>
      <use transform="translate(727.666742 19.411338)scale(0.697382)" xlink:href="#CMMI12-22"/>
      <use transform="translate(769.248679 34.355253)scale(0.996264)" xlink:href="#CMR17-41"/>
      <path d="M 0 58.766138 
L 128.567691 58.766138 
L 128.567691 59.757583 
L 0 59.757583 
L 0 58.766138 
z
"/>
     </g>
    </g>
   </g>
   <g id="LineCollection_5">
    <path clip-path="url(#padcdd8ea3f)" d="M 414.472646 40.726304 
L 437.602783 40.726304 
" style="fill:none;stroke:#000000;stroke-width:1.5;"/>
    <path clip-path="url(#padcdd8ea3f)" d="M 437.602783 59.003188 
L 465.740474 59.003188 
" style="fill:none;stroke:#000000;stroke-width:1.5;"/>
    <path clip-path="url(#padcdd8ea3f)" d="M 465.740474 63.824424 
L 494.116621 63.824424 
" style="fill:none;stroke:#000000;stroke-width:1.5;"/>
    <path clip-path="url(#padcdd8ea3f)" d="M 494.116621 84.332115 
L 522.254313 84.332115 
" style="fill:none;stroke:#000000;stroke-width:1.5;"/>
    <path clip-path="url(#padcdd8ea3f)" d="M 522.254313 105.365364 
L 550.63046 105.365364 
" style="fill:none;stroke:#000000;stroke-width:1.5;"/>
    <path clip-path="url(#padcdd8ea3f)" d="M 550.63046 131.258324 
L 578.768152 131.258324 
" style="fill:none;stroke:#000000;stroke-width:1.5;"/>
    <path clip-path="url(#padcdd8ea3f)" d="M 578.768152 134.121133 
L 606.905844 134.121133 
" style="fill:none;stroke:#000000;stroke-width:1.5;"/>
    <path clip-path="url(#padcdd8ea3f)" d="M 606.905844 160.037867 
L 635.28199 160.037867 
" style="fill:none;stroke:#000000;stroke-width:1.5;"/>
    <path clip-path="url(#padcdd8ea3f)" d="M 635.28199 178.032581 
L 663.419682 178.032581 
" style="fill:none;stroke:#000000;stroke-width:1.5;"/>
    <path clip-path="url(#padcdd8ea3f)" d="M 663.419682 190.639104 
L 691.795829 190.639104 
" style="fill:none;stroke:#000000;stroke-width:1.5;"/>
   </g>
   <g id="LineCollection_6">
    <path clip-path="url(#padcdd8ea3f)" d="M 426.037714 52.827889 
L 426.037714 28.624719 
" style="fill:none;stroke:#000000;stroke-width:1.5;"/>
    <path clip-path="url(#padcdd8ea3f)" d="M 451.671628 69.799038 
L 451.671628 48.207339 
" style="fill:none;stroke:#000000;stroke-width:1.5;"/>
    <path clip-path="url(#padcdd8ea3f)" d="M 479.928548 74.139511 
L 479.928548 53.509338 
" style="fill:none;stroke:#000000;stroke-width:1.5;"/>
    <path clip-path="url(#padcdd8ea3f)" d="M 508.185467 93.747083 
L 508.185467 74.917147 
" style="fill:none;stroke:#000000;stroke-width:1.5;"/>
    <path clip-path="url(#padcdd8ea3f)" d="M 536.442387 113.600826 
L 536.442387 97.129902 
" style="fill:none;stroke:#000000;stroke-width:1.5;"/>
    <path clip-path="url(#padcdd8ea3f)" d="M 564.699306 138.297102 
L 564.699306 124.219545 
" style="fill:none;stroke:#000000;stroke-width:1.5;"/>
    <path clip-path="url(#padcdd8ea3f)" d="M 592.836998 141.13969 
L 592.836998 127.102576 
" style="fill:none;stroke:#000000;stroke-width:1.5;"/>
    <path clip-path="url(#padcdd8ea3f)" d="M 621.093917 164.923227 
L 621.093917 155.152507 
" style="fill:none;stroke:#000000;stroke-width:1.5;"/>
    <path clip-path="url(#padcdd8ea3f)" d="M 649.350836 181.35834 
L 649.350836 174.706822 
" style="fill:none;stroke:#000000;stroke-width:1.5;"/>
    <path clip-path="url(#padcdd8ea3f)" d="M 677.607756 192.762859 
L 677.607756 188.515349 
" style="fill:none;stroke:#000000;stroke-width:1.5;"/>
   </g>
   <g id="line2d_34">
    <path clip-path="url(#padcdd8ea3f)" d="M 416.857196 32.608011 
L 419.627128 30.356285 
L 422.39706 31.870949 
L 425.166992 33.85585 
L 427.936924 35.953803 
L 430.706856 38.081486 
L 433.476788 40.211608 
L 436.24672 42.333378 
L 439.016652 44.442062 
L 441.786584 46.535501 
L 444.556516 48.612759 
L 447.326448 50.673528 
L 450.09638 52.717839 
L 452.866312 54.745922 
L 455.636244 56.758119 
L 458.406176 58.754842 
L 461.176108 60.736546 
L 463.94604 62.703707 
L 466.715972 64.656818 
L 469.485904 66.596378 
L 472.255836 68.522884 
L 475.025768 70.436836 
L 477.7957 72.338725 
L 480.565632 74.229041 
L 483.335564 76.108263 
L 486.105496 77.976863 
L 488.875428 79.835303 
L 491.64536 81.684038 
L 494.415292 83.523511 
L 497.185224 85.354154 
L 499.955156 87.17639 
L 502.725088 88.990628 
L 505.49502 90.797267 
L 508.264952 92.596694 
L 511.034884 94.389284 
L 513.804816 96.175397 
L 516.574748 97.955384 
L 519.34468 99.729578 
L 522.114612 101.498302 
L 524.884544 103.261862 
L 527.654476 105.020552 
L 530.424408 106.77465 
L 533.19434 108.524417 
L 535.964272 110.270099 
L 538.734204 112.011927 
L 541.504136 113.750114 
L 544.274068 115.484854 
L 547.044 117.216325 
L 549.813932 118.944684 
L 552.583864 120.67007 
L 555.353796 122.392601 
L 558.123728 124.112373 
L 560.89366 125.829461 
L 563.663592 127.543918 
L 566.433524 129.25577 
L 569.203456 130.965021 
L 571.973388 132.671646 
L 574.74332 134.375596 
L 577.513252 136.07679 
L 580.283184 137.775119 
L 583.053116 139.470442 
L 585.823048 141.162584 
L 588.59298 142.851335 
L 591.362912 144.53645 
L 594.132844 146.217642 
L 596.902776 147.894586 
L 599.672708 149.56691 
L 602.44264 151.234198 
L 605.212572 152.895984 
L 607.982504 154.551749 
L 610.752436 156.20092 
L 613.522368 157.842862 
L 616.2923 159.476875 
L 619.062232 161.102193 
L 621.832164 162.717973 
L 624.602096 164.323293 
L 627.372028 165.917143 
L 630.14196 167.498419 
L 632.911892 169.065911 
L 635.681824 170.618299 
L 638.451756 172.154135 
L 641.221688 173.671832 
L 643.99162 175.16965 
L 646.761552 176.645674 
L 649.531484 178.097794 
L 652.301416 179.523675 
L 655.071348 180.920729 
L 657.84128 182.286067 
L 660.611212 183.616451 
L 663.381144 184.908227 
L 666.151076 186.157233 
L 668.921008 187.358682 
L 671.69094 188.506992 
L 674.460872 189.595544 
L 677.230804 190.61631 
L 680.000736 191.559252 
L 682.770668 192.411248 
L 685.5406 193.153936 
L 688.310532 193.758374 
L 691.080464 194.164315 
" style="fill:none;stroke:#1f77b4;stroke-linecap:square;stroke-width:1.5;"/>
   </g>
   <g id="line2d_35">
    <path clip-path="url(#padcdd8ea3f)" d="M 416.857196 63.172047 
L 419.627128 60.193947 
L 422.39706 60.639221 
L 425.166992 61.570661 
L 427.936924 62.640525 
L 430.706856 63.761273 
L 433.476788 64.902029 
L 436.24672 66.049575 
L 439.016652 67.197526 
L 441.786584 68.342554 
L 444.556516 69.482857 
L 447.326448 70.617456 
L 450.09638 71.745847 
L 452.866312 72.867812 
L 455.636244 73.983315 
L 458.406176 75.092441 
L 461.176108 76.195352 
L 463.94604 77.292267 
L 466.715972 78.383446 
L 469.485904 79.469172 
L 472.255836 80.549752 
L 475.025768 81.625508 
L 477.7957 82.69677 
L 480.565632 83.76388 
L 483.335564 84.827184 
L 486.105496 85.887033 
L 488.875428 86.943781 
L 491.64536 87.997785 
L 494.415292 89.049405 
L 497.185224 90.098999 
L 499.955156 91.146929 
L 502.725088 92.193557 
L 505.49502 93.239244 
L 508.264952 94.284353 
L 511.034884 95.329245 
L 513.804816 96.374282 
L 516.574748 97.419826 
L 519.34468 98.466238 
L 522.114612 99.513879 
L 524.884544 100.56311 
L 527.654476 101.614291 
L 530.424408 102.667782 
L 533.19434 103.723944 
L 535.964272 104.783134 
L 538.734204 105.845713 
L 541.504136 106.91204 
L 544.274068 107.982474 
L 547.044 109.057373 
L 549.813932 110.137098 
L 552.583864 111.222008 
L 555.353796 112.312463 
L 558.123728 113.408824 
L 560.89366 114.511452 
L 563.663592 115.620711 
L 566.433524 116.736965 
L 569.203456 117.860579 
L 571.973388 118.991924 
L 574.74332 120.131368 
L 577.513252 121.279287 
L 580.283184 122.436059 
L 583.053116 123.602065 
L 585.823048 124.777694 
L 588.59298 125.96334 
L 591.362912 127.159403 
L 594.132844 128.366294 
L 596.902776 129.584432 
L 599.672708 130.814248 
L 602.44264 132.056189 
L 605.212572 133.310716 
L 607.982504 134.578307 
L 610.752436 135.859467 
L 613.522368 137.154723 
L 616.2923 138.464633 
L 619.062232 139.789792 
L 621.832164 141.130837 
L 624.602096 142.488455 
L 627.372028 143.863393 
L 630.14196 145.256469 
L 632.911892 146.668587 
L 635.681824 148.100753 
L 638.451756 149.5541 
L 641.221688 151.02991 
L 643.99162 152.529653 
L 646.761552 154.055032 
L 649.531484 155.608036 
L 652.301416 157.191022 
L 655.071348 158.806813 
L 657.84128 160.458837 
L 660.611212 162.151323 
L 663.381144 163.889573 
L 666.151076 165.680368 
L 668.921008 167.532583 
L 671.69094 169.458152 
L 674.460872 171.473692 
L 677.230804 173.603364 
L 680.000736 175.884434 
L 682.770668 178.379365 
L 685.5406 181.207252 
L 688.310532 184.654668 
L 691.080464 190.037272 
" style="fill:none;stroke:#ff7f0e;stroke-linecap:square;stroke-width:1.5;"/>
   </g>
   <g id="line2d_36">
    <g clip-path="url(#padcdd8ea3f)">
     <use style="stroke:#000000;" x="426.037714" xlink:href="#m3c0d20b9df" y="40.726304"/>
     <use style="stroke:#000000;" x="451.671628" xlink:href="#m3c0d20b9df" y="59.003188"/>
     <use style="stroke:#000000;" x="479.928548" xlink:href="#m3c0d20b9df" y="63.824424"/>
     <use style="stroke:#000000;" x="508.185467" xlink:href="#m3c0d20b9df" y="84.332115"/>
     <use style="stroke:#000000;" x="536.442387" xlink:href="#m3c0d20b9df" y="105.365364"/>
     <use style="stroke:#000000;" x="564.699306" xlink:href="#m3c0d20b9df" y="131.258324"/>
     <use style="stroke:#000000;" x="592.836998" xlink:href="#m3c0d20b9df" y="134.121133"/>
     <use style="stroke:#000000;" x="621.093917" xlink:href="#m3c0d20b9df" y="160.037867"/>
     <use style="stroke:#000000;" x="649.350836" xlink:href="#m3c0d20b9df" y="178.032581"/>
     <use style="stroke:#000000;" x="677.607756" xlink:href="#m3c0d20b9df" y="190.639104"/>
    </g>
   </g>
   <g id="patch_9">
    <path d="M 414.472646 202.903963 
L 414.472646 10.7 
" style="fill:none;stroke:#000000;stroke-linecap:square;stroke-linejoin:miter;stroke-width:0.8;"/>
   </g>
   <g id="patch_10">
    <path d="M 700.618665 202.903963 
L 700.618665 10.7 
" style="fill:none;stroke:#000000;stroke-linecap:square;stroke-linejoin:miter;stroke-width:0.8;"/>
   </g>
   <g id="patch_11">
    <path d="M 414.472646 202.903963 
L 700.618665 202.903963 
" style="fill:none;stroke:#000000;stroke-linecap:square;stroke-linejoin:miter;stroke-width:0.8;"/>
   </g>
   <g id="patch_12">
    <path d="M 414.472646 10.7 
L 700.618665 10.7 
" style="fill:none;stroke:#000000;stroke-linecap:square;stroke-linejoin:miter;stroke-width:0.8;"/>
   </g>
   <g id="legend_2">
    <g id="patch_13">
     <path d="M 625.585059 60.878334 
L 693.618665 60.878334 
Q 695.618665 60.878334 695.618665 58.878334 
L 695.618665 17.7 
Q 695.618665 15.7 693.618665 15.7 
L 625.585059 15.7 
Q 623.585059 15.7 623.585059 17.7 
L 623.585059 58.878334 
Q 623.585059 60.878334 625.585059 60.878334 
z
" style="fill:#ffffff;opacity:0.8;stroke:#cccccc;stroke-linejoin:miter;"/>
    </g>
    <g id="line2d_37">
     <path d="M 627.585059 23.2 
L 647.585059 23.2 
" style="fill:none;stroke:#1f77b4;stroke-linecap:square;stroke-width:1.5;"/>
    </g>
    <g id="line2d_38"/>
    <g id="text_32">
     <!-- SM -->
     <g transform="translate(655.585059 26.7)scale(0.1 -0.1)">
      <use transform="scale(0.996264)" xlink:href="#CMR17-83"/>
      <use transform="translate(50.89537 0)scale(0.996264)" xlink:href="#CMR17-77"/>
     </g>
    </g>
    <g id="line2d_39">
     <path d="M 627.585059 37.503977 
L 647.585059 37.503977 
" style="fill:none;stroke:#ff7f0e;stroke-linecap:square;stroke-width:1.5;"/>
    </g>
    <g id="line2d_40"/>
    <g id="text_33">
     <!-- $C_{S_L}=1$ -->
     <g transform="translate(655.585059 41.003977)scale(0.1 -0.1)">
      <use transform="translate(0 25.404611)scale(0.996264)" xlink:href="#CMMI12-67"/>
      <use transform="translate(69.792037 10.460696)scale(0.697382)" xlink:href="#CMMI12-83"/>
      <use transform="translate(111.787994 0)scale(0.498132)" xlink:href="#CMMI12-76"/>
      <use transform="translate(173.643697 25.404611)scale(0.996264)" xlink:href="#CMR17-61"/>
      <use transform="translate(273.032494 25.404611)scale(0.996264)" xlink:href="#CMR17-49"/>
     </g>
    </g>
    <g id="LineCollection_7">
     <path d="M 632.585059 51.441156 
L 642.585059 51.441156 
" style="fill:none;stroke:#000000;stroke-width:1.5;"/>
    </g>
    <g id="LineCollection_8">
     <path d="M 637.585059 56.441156 
L 637.585059 46.441156 
" style="fill:none;stroke:#000000;stroke-width:1.5;"/>
    </g>
    <g id="line2d_41"/>
    <g id="line2d_42">
     <g>
      <use style="stroke:#000000;" x="637.585059" xlink:href="#m3c0d20b9df" y="51.441156"/>
     </g>
    </g>
    <g id="text_34">
     <!-- Belle -->
     <g transform="translate(655.585059 54.941156)scale(0.1 -0.1)">
      <use transform="scale(0.996264)" xlink:href="#CMR17-66"/>
      <use transform="translate(65.188754 0)scale(0.996264)" xlink:href="#CMR17-101"/>
      <use transform="translate(105.674415 0)scale(0.996264)" xlink:href="#CMR17-108"/>
      <use transform="translate(130.545473 0)scale(0.996264)" xlink:href="#CMR17-108"/>
      <use transform="translate(155.416532 0)scale(0.996264)" xlink:href="#CMR17-101"/>
     </g>
    </g>
   </g>
  </g>
 </g>
 <defs>
  <clipPath id="p0292dab693">
   <rect height="192.203963" width="286.146019" x="59.872646" y="10.7"/>
  </clipPath>
  <clipPath id="padcdd8ea3f">
   <rect height="192.203963" width="286.146019" x="414.472646" y="10.7"/>
  </clipPath>
 </defs>
</svg>
